<svg xmlns="http://www.w3.org/2000/svg" viewBox="0 0 511.986 511.986"><path fill="#2dcf7a" d="M504.211 7.745l-6.042 6.025 5.975-6.088c-10.53-10.079-27.129-10.079-37.658 0l-168.26 168.774-18.107-18.162a34.022 34.022 0 00-57.712 18.462 26.141 26.141 0 00-26.788 5.759 25.7 25.7 0 00-5.715 27.435 102.706 102.706 0 00-24.46-3.056 101.56 101.56 0 00-72.4 30.083l-90.55 90.827a8.525 8.525 0 000 12.05l168.983 169.5a8.53 8.53 0 0012.084 0l90.525-90.8a102.838 102.838 0 0026.871-97.192 25.54 25.54 0 0033.329-32.59 33.79 33.79 0 0018.258-9.456c13.3-13.383 13.3-34.993 0-48.375l-16.621-16.672L504.211 45.466c10.366-10.437 10.366-27.284 0-37.721zM262.002 406.504l-84.483 84.738-24.114-24.188-.003-.004c-1.225-1.246-29.792-30.737-6.05-54.554a8.53 8.53 0 00-3.84-14.28 8.534 8.534 0 00-8.244 2.23 45.826 45.826 0 00-14.504 33.868L20.585 333.829l84.542-84.8a85.119 85.119 0 01120.611-.035l36.307 36.417c33.258 33.521 33.238 87.596-.043 121.093zm54.317-102.913a8.713 8.713 0 01-12.05 0l-30.14-30.231-.044-.048-36.225-36.333-.039-.035-30.12-30.211a8.567 8.567 0 1112.059-12.171l96.559 96.858a8.64 8.64 0 010 12.171zm24.142-60.6c6.666 6.72 6.666 17.559 0 24.279a16.92 16.92 0 01-12.058 5.012h-.008a16.916 16.916 0 01-12.05-5.008v-.004l-72.425-72.646c-6.675-6.717-6.675-17.562 0-24.279a17.01 17.01 0 0124.116 0l72.425 72.646zM492.127 33.416l-168.25 168.763-13.6-13.637L478.569 19.733c3.779-3.744 9.877-3.716 13.621.062 3.744 3.779 3.716 9.877-.063 13.621z"/></svg>