<svg viewBox="0 -17 512 512" xmlns="http://www.w3.org/2000/svg"><path fill="#2dcf7a" d="M17.066 408.027v35.707c.02 18.844 15.29 34.114 34.133 34.133h42.668c18.844-.02 34.113-15.289 34.133-34.133v-34.132h256v34.132c.02 18.844 15.29 34.114 34.133 34.133H460.8c18.844-.02 34.113-15.289 34.133-34.133v-35.707A25.556 25.556 0 00512 384V196.266a25.555 25.555 0 00-11.617-21.395L467.39 36.062C462.379 14.902 443.465-.03 421.719 0H90.28C68.527-.031 49.613 14.914 44.61 36.082l-32.992 138.79A25.555 25.555 0 000 196.265V384a25.556 25.556 0 0017.066 24.027zm93.868 35.707c-.012 9.422-7.645 17.055-17.067 17.067H51.2c-9.422-.012-17.054-7.645-17.066-17.067v-34.132h76.8zM460.8 460.801h-42.668c-9.422-.012-17.055-7.645-17.067-17.067v-34.132h76.801v34.132c-.012 9.422-7.644 17.055-17.066 17.067zM494.934 384c-.004 4.71-3.825 8.527-8.536 8.535H25.602c-4.711-.008-8.532-3.824-8.536-8.535V196.266c.004-4.711 3.825-8.528 8.536-8.532h460.796c4.711.004 8.532 3.82 8.536 8.532zM74.027 170.668l26.325-110.934h311.296l26.325 110.934zM61.207 40.055c3.184-13.48 15.223-23 29.074-22.989H421.72c13.844-.015 25.883 9.496 29.074 22.97l31.05 130.632h-26.335L426.69 49.23a8.531 8.531 0 00-8.3-6.562H93.609a8.527 8.527 0 00-8.296 6.562l-28.82 121.438H30.155zm0 0"/><path fill="#2dcf7a" d="M102.398 221.867c-28.277 0-51.199 22.922-51.199 51.2s22.922 51.199 51.2 51.199c28.277 0 51.203-22.922 51.203-51.2-.032-28.265-22.938-51.168-51.204-51.199zm0 85.332c-18.851 0-34.132-15.281-34.132-34.133 0-18.851 15.28-34.132 34.132-34.132 18.852 0 34.137 15.28 34.137 34.132-.023 18.844-15.293 34.114-34.137 34.133zm307.204-85.332c-28.278 0-51.204 22.922-51.204 51.2s22.926 51.199 51.204 51.199c28.277 0 51.199-22.922 51.199-51.2-.031-28.265-22.938-51.168-51.2-51.199zm0 85.332c-18.852 0-34.137-15.281-34.137-34.133 0-18.851 15.285-34.132 34.137-34.132 18.851 0 34.132 15.28 34.132 34.132-.02 18.844-15.293 34.114-34.132 34.133zM136.535 76.8h-17.07a8.532 8.532 0 00-8.531 8.532 8.533 8.533 0 008.53 8.535h17.071a8.533 8.533 0 008.531-8.535c0-4.71-3.82-8.531-8.53-8.531zm179.199 0H170.668a8.533 8.533 0 100 17.067h145.066a8.533 8.533 0 000-17.066zm0 0"/></svg>