<svg xmlns="http://www.w3.org/2000/svg" width="50" height="50" viewBox="0 0 499.8 485.7">
  <path fill="none" stroke="#594302" stroke-width="8" stroke-miterlimit="10"
    d="M272 184.7L462 5.4l32 28-180.6 192 17.3 24.7-28.3 81.4-52 149.9-68.4-7.3-64-33.4-53.3-51.3-41.3-64.7L4 264.1l4.7-71.4 95.3 16.7 70.7-8.7 68-30.6z" />
  <path fill="none" stroke="#594302" stroke-width="8" stroke-miterlimit="10"
    d="M173.4 200.4l130 129.2-130-129.2zm-62.3 57.2L4 264.1m102.6 45l-83.2 15.6m106.2 25.6l-64.9 39.1m116.7-19.5L118 440.7m110.6-57.6l-46.6 91" />
  </svg>