<svg viewBox="0 -51 512 512" xmlns="http://www.w3.org/2000/svg"><path fill="#2dcf7a" d="M42.668 153.602h8.531v117.46L29.27 315a33.656 33.656 0 00-3.667 15.324v45.14c0 18.852 15.28 34.138 34.132 34.138h170.664c18.852 0 34.137-15.286 34.137-34.137v-51.2a8.4 8.4 0 00-.668-3.285 8.467 8.467 0 00-1.844-2.753l-46.191-46.192a25.398 25.398 0 00-18.105-7.5H179.2c-4.71 0-8.531-3.824-8.531-8.535v-51.2h8.531c14.14 0 25.602-11.46 25.602-25.6v-25.598h93.867a25.6 25.6 0 0024.027-17.067h44.239a59.459 59.459 0 0053.757-34.137h65.707c14.11-.07 25.532-11.488 25.602-25.597 0-14.14-11.46-25.602-25.602-25.602h-65.707c-9.8-20.824-30.742-34.117-53.757-34.133h-44.239A25.594 25.594 0 00298.668 0h-256C19.113.027.028 19.113 0 42.668v68.266c.027 23.55 19.113 42.636 42.668 42.668zm187.73 238.933H59.734c-9.425 0-17.066-7.644-17.066-17.07v-45.14a16.819 16.819 0 011.824-7.63l17.586-35.215 37.82 37.82a25.43 25.43 0 0018.11 7.5h129.457v42.665c0 9.426-7.64 17.07-17.067 17.07zM179.2 281.602h18.528a8.506 8.506 0 016.039 2.5l31.636 31.632H118.008a8.547 8.547 0 01-6.043-2.5l-43.7-43.699V153.602h42.669v68.265c.027 23.551 19.113 42.637 42.668 42.668h1.57a25.6 25.6 0 0024.027 17.067zm-25.597-128v93.863c-14.141 0-25.602-11.461-25.602-25.598v-68.265zm34.132 25.597a8.534 8.534 0 01-8.535 8.535h-8.531v-34.132h17.066zm307.2-102.398a8.331 8.331 0 01-2.614 6.082 8.22 8.22 0 01-5.922 2.449h-60.464a59.4 59.4 0 00.734-8.531 59.655 59.655 0 00-.734-8.535h60.464a8.534 8.534 0 018.536 8.535zm-87.809-14.14a40.974 40.974 0 012.477 14.14 41.414 41.414 0 01-2.512 14.265 42.337 42.337 0 01-31.625 27.438V35.098a42.374 42.374 0 0131.66 27.562zm-48.727 56.804h-34.132V34.133h34.132zM17.066 42.668c0-14.14 11.461-25.602 25.602-25.602h256c4.71 0 8.531 3.82 8.531 8.536v8.53h-17.066a8.533 8.533 0 00-8.531 8.536c0 4.71 3.82 8.531 8.53 8.531H307.2v17.067h-17.066a8.533 8.533 0 00-8.531 8.535c0 4.71 3.82 8.531 8.53 8.531H307.2v17.066h-17.066a8.533 8.533 0 00-8.531 8.536c0 4.71 3.82 8.53 8.53 8.53H307.2V128c0 4.71-3.82 8.535-8.531 8.535h-256c-14.14 0-25.602-11.465-25.602-25.601zm0 0"/><path fill="#2dcf7a" d="M51.2 51.2h34.132a8.533 8.533 0 100-17.067H51.199a8.533 8.533 0 00-8.531 8.535c0 4.71 3.82 8.531 8.531 8.531zm0 34.132h34.132a8.533 8.533 0 100-17.066H51.199a8.533 8.533 0 00-8.531 8.535c0 4.71 3.82 8.531 8.531 8.531zm0 0"/></svg>