<svg xmlns="http://www.w3.org/2000/svg" width="200.1" height="199.9"><path d="M104.8 5.8v17.5l2.5.4c1 .2 2 .3 2.9.5 2.9.5 5.7.9 8.3 1.6 8.1 2.2 15.6 6.6 23.8 13.9 3.2 2.9 6.5 5.9 9.6 8.8 3.7 3.4 7.5 6.9 11.3 10.3 10.6 9.2 20.5 14.5 31.3 16.7 1.5.3 2.1.8 2.5 1.5v1.2c-.2.5-.5 1-.7 1.4-.6 1.1-1.4 1.6-2.5 1.6-.2 0-.4 0-.7-.1-7.5-1.3-14.6-4.4-21-9.2-6-4.5-11.6-9.5-15.9-13.3-1.8-1.6-3.7-3.3-5.4-5-5.6-5.2-11.4-10.6-18.2-14.9-7.9-5.1-15.5-7.8-23.1-8.4h-4.8V53l2.4.5c.6.1 1.2.2 1.9.3 10.7.8 18.8 9.1 19.2 19.8 0 .4 0 .8.1 1.2V157c0 5.4-1.3 9.7-4.2 13.6-3.7 4.9-8.6 7.6-15 8.1-.7.1-1.5.1-2.4.1H24.9c-4 0-7.1-.7-10-2.1-6.2-3-9.9-7.9-11.5-14.9-.1-.4-.2-.7-.3-1 0-.1-.1-.2-.1-.2v-89c.1-.2.2-.6.3-.9v-.2c1.8-9.4 9.8-16.5 19-16.9 1.6-.1 4.3-.9 4.3-4.8v-43h27.8c0 .5 0 1 .1 1.5v.2c0 .4.1.7.1 1.1.1 1.5.3 3.2 1 4.9 1.6 3.8 5.7 6.4 10.1 6.4.6 0 1.2-.1 1.8-.2 5.3-1.1 8.9-5.3 9.1-10.4.1-1.2.1-2.3 0-3.4h28.2m-23.3 9.2c-2.1 5.1-5.7 8.4-10.9 9.8-1.7.5-3.4.7-5.1.7-7.1 0-13.1-4.2-15.7-11.1-1.2-3.1-3.8-3.1-4.7-3.1h-.2c-1.3 0-2.5.1-3.7.1-1.2 0-2.4 0-3.7-.1H37c-2.2 0-4.6 1.3-4.6 4.9.1 6.8 0 13.6 0 20.3v10.5l.1.3v3.4l2.3.6c.8.2 1.3.2 1.6.2h58.1c2.1 0 4.3-1.2 4.3-4.4V16c0-2.8-1.7-4.5-4.6-4.5H94c-1.2 0-2.4.1-3.6.1-1.2 0-2.4 0-3.6-.1h-.5c-2.2 0-3.9 1.2-4.8 3.6M24.6 172.9h82.1c.7 0 1.7 0 2.6-.1 6.8-.7 12.5-6.4 12.8-13 .2-3.7.2-7.4.2-10.9V75.1c0-9.2-6.3-15.7-15.2-15.7H23.9c-2.4 0-5.1.7-7.2 1.7-5.3 2.7-7.9 7.4-7.9 13.9.2 13.8.2 27.7.2 41.1v40.7c0 1.4 0 3 .4 4.7 1.6 6.9 7.6 11.4 15.2 11.4M107.8 2.8H73.9c0 2.2.1 4.2 0 6.3-.1 3.8-2.9 6.8-6.7 7.6-.4.1-.9.1-1.3.1-3 0-6.2-1.7-7.4-4.6-.7-1.5-.7-3.4-.9-5.1-.1-1.4 0-2.8 0-4.3H23.8v46c0 1.1-.1 1.7-1.5 1.8C11.9 51 2.6 58.9.5 69.9c-.1.4-.3.8-.4 1.2v89.8c.1.5.3 1 .4 1.5 1.7 7.7 5.9 13.5 13.1 17 3.6 1.8 7.4 2.4 11.3 2.4h81.9c.9 0 1.8 0 2.7-.1 7.1-.6 12.8-3.6 17.1-9.3 3.4-4.6 4.8-9.7 4.8-15.4V75.5c0-.7-.1-1.5-.1-2.2-.5-12.3-9.9-21.8-22.1-22.7-.4 0-.9-.1-1.4-.2V33.2h1.6c8 .6 15.1 3.7 21.7 7.9 8.6 5.5 15.6 12.8 23.2 19.6 5.2 4.7 10.5 9.3 16.1 13.5 6.6 5 14.1 8.4 22.3 9.8.4.1.8.1 1.2.1 2.2 0 4-1.2 5.1-3.2.3-.6.7-1.4 1-2.1 0-.8 0-1.7.1-2.4-.9-2.3-2.6-3.4-5-3.9-11.6-2.3-21.2-8.4-29.9-16-7.1-6.2-13.9-12.8-20.9-19-7.3-6.5-15.4-11.9-25-14.5-3.7-1-7.5-1.5-11.5-2.2v-18zM65.5 28.6c1.9 0 3.9-.3 5.9-.8 6.1-1.7 10.5-5.7 12.9-11.6.5-1.2 1-1.7 2.2-1.7h.3c1.3.1 2.5.1 3.8.1s2.5 0 3.8-.1c1.2 0 1.6.3 1.6 1.5v31.3c0 .9-.2 1.4-1.3 1.4H36.6c-.2 0-.5 0-.9-.1 0-.6 0-1.2-.1-1.7 0-10.2.1-20.3 0-30.5 0-1.3.3-1.9 1.6-1.9h.3c1.3.1 2.6.1 3.9.1 1.3 0 2.5 0 3.8-.1 1 0 1.5.2 1.9 1.2 3 8 10.2 12.9 18.4 12.9zM24.6 169.9c-6.3 0-11-3.5-12.3-9.1-.3-1.3-.3-2.7-.3-4v-40.7c0-13.6 0-27.3-.2-41.1 0-5 1.8-8.9 6.3-11.2 1.7-.9 3.9-1.4 5.8-1.4h83.2c7.4 0 12.2 5.1 12.2 12.7v71.1c0 4.5.1 8.9-.2 13.4-.3 5.3-4.9 9.7-10.2 10.2-.7.1-1.5.1-2.2.1H24.6zm83.7 18.4c.6 0 1.3 0 1.8.1h.2c1.6.2 2.7 1.2 2.7 2.6.1 1.7-.9 2.8-2.6 3-.4.1-.8.1-1.2.1H22.4c-2.1 0-2.8-.5-3.3-1.1-.6-.8-.8-1.8-.5-2.9.2-.5.7-1.6 2-1.9.6-.1 1.4-.1 2.2-.1h85.5m0-2.8H22.9c-1 0-2 0-2.9.2-4.3.9-6 6.3-3.2 9.6 1.5 1.7 3.5 2.1 5.6 2.1h86.7c.5 0 1.1 0 1.7-.1 3.2-.5 5.2-2.9 5.1-6.1 0-3-2.3-5.3-5.4-5.6-.7-.1-1.5-.1-2.2-.1z"/></svg>