<svg viewBox="0 0 60 56" xmlns="http://www.w3.org/2000/svg"><path fill="#2dcf7a" id="Shape" d="M55.267 6.451a17.332 17.332 0 00-24.529-.713l-.759.717C23.405-.517 12.425-.84 5.453 5.733-1.52 12.307-1.843 23.288 4.73 30.26l1.709 1.811a5.063 5.063 0 005.295 7.029 5.039 5.039 0 005.611 5.946 5.038 5.038 0 005.61 5.945 5.08 5.08 0 008.479 4.618c5.707-5.388 5.528-5.119 6.067-6.027a5.05 5.05 0 007.238-5.178 5.054 5.054 0 005.943-5.618 5.079 5.079 0 004.564-8.531c6.332-6.668 6.34-17.125.02-23.804zM8.866 36.2a3.093 3.093 0 01.126-4.366l5.2-4.91a3.088 3.088 0 014.238 4.492l-5.2 4.91a3.09 3.09 0 01-4.364-.126zm5.611 5.946a3.091 3.091 0 01.126-4.366l5.2-4.91a3.087 3.087 0 014.237 4.491l-5.2 4.911a3.091 3.091 0 01-4.363-.131zm5.61 5.945a3.092 3.092 0 01.127-4.365l5.2-4.91a3.087 3.087 0 014.238 4.484l-5.2 4.91a3.088 3.088 0 01-4.365-.124zm9.975 6.072a3.087 3.087 0 11-4.238-4.491l5.2-4.911a3.088 3.088 0 014.238 4.492zm23.653-18.117a3.079 3.079 0 01-4.363-.126L36.026 21.8a1 1 0 00-1.455 1.373L47.9 37.292a3.087 3.087 0 11-4.49 4.239L30.082 27.41a1 1 0 10-1.455 1.373L41.951 42.9a3.084 3.084 0 01-3.79 4.785 5.048 5.048 0 00-4.87-5.772c-1.1-.029-.7.387-.672-.713a5.085 5.085 0 00-4.938-5.233c-1.1-.035-.705.4-.672-.713a5.087 5.087 0 00-4.939-5.233c-1.107-.031-.705.409-.672-.713a5.093 5.093 0 00-8.577-3.847c-7.15 6.749-4.683 4.423-5.216 4.926l-1.418-1.5C.372 22.719.658 13.005 6.827 7.189c6.168-5.815 15.882-5.528 21.697.64l-8.19 7.734a4.151 4.151 0 00-1.275 2.837c-.1 4.107 6.009 6.693 9.742 3.16l7.464-7.044a1 1 0 011.414.04l16.162 17.126a3.086 3.086 0 01-.126 4.364zm.171-7.23L39.133 13.183a3 3 0 00-4.241-.122l-7.465 7.046a4.1 4.1 0 01-5.807-.179 2.058 2.058 0 01.089-2.913l10.4-9.823c6.023-5.702 15.486-5.589 21.371.255 5.886 5.844 6.065 15.306.406 21.369z" transform="translate(0 -1)"/></svg>