<svg xmlns="http://www.w3.org/2000/svg" width="200.2" height="196.9" viewBox="0 0 200.2 196.9"><path fill="none" stroke="#F2E41D" stroke-width="3" stroke-miterlimit="10" d="M42.6 137.3c-13.5.7-21.3-13.4-14.3-24.2C13.6 101.7 5.7 86.8 5.2 68.2c-.4-14.5 4.2-27.3 13.6-38.3 20.4-24 57.4-27 81.4-5.7.3-.2.6-.5.9-.7 12.1-10 26-14.5 41.6-13.4 26.2 1.9 47.8 21.7 51.9 47.6 2.9 18.6-2.2 34.9-14.9 48.9-.4.4-.8 1.1-.7 1.7.3 9.4-6.7 16.6-16 16.4h-.9c.2 4.7-1.1 9-4.5 12.4-3.4 3.4-7.5 4.7-12.4 4.5.2 5.6-1.6 10.3-6.1 13.7-4.4 3.4-9.4 4-14.7 2.3-.1.3-.2.5-.2.8-.7 3-2 5.7-4.2 7.9-5.8 5.7-11.5 11.5-17.3 17.2-4.5 4.5-11.3 5.7-17 3.3-6-2.6-9.5-8.1-9.4-14.7v-1c-4.8.3-9-1.1-12.4-4.5-3.4-3.4-4.7-7.5-4.5-12.4-4.8.3-9-1.1-12.4-4.5-3.2-3.4-4.6-7.6-4.4-12.4zm43.3-14.6c5.7-4.1 11.6-5.1 17.7-1.6 7.3 4.2 9.2 10.8 7.2 18.7l1.5.3c4.2.9 7.4 3.1 9.8 6.6.8 1.1 1.7 2.2 2.8 3 4.5 3.4 11.1 1.3 12.8-4.1 1.1-3.4.2-6.3-2.2-8.7l-36.8-36.8-.7-.7c1.7-1.8 3.2-3.4 4.8-5.1.2.2.5.4.7.6 8.5 8.4 16.9 16.9 25.3 25.3l11.9 11.9c3.7 3.7 9.4 3.3 12.6-.8 2.7-3.5 2.3-8-1.2-11.5-10.7-10.7-21.4-21.4-32.1-32-1.8-1.8-3.6-3.5-5.3-5.1 1.8-1.8 3.5-3.4 5.4-5.3.2.3.4.7.7 1L140.4 98l16.9 16.9c2.9 2.9 6.5 3.6 9.8 2.1 5.4-2.6 6.6-9.3 2.3-13.5l-45.2-45.2c-2.3-2.3-4.6-4.6-7.1-7.2-.5.6-.9 1.2-1.3 1.7L90.3 78.3c-3.9 3.9-8.6 5.7-14.1 5.6-9.8-.6-16.8-5.9-23.2-12.7 14-14 28-28 42-41.9-12.1-11-31.7-16-50.3-9-18 6.8-32.4 24.5-32.4 46.7 0 17.1 7.4 30.6 21 41 1.9-1.9 3.7-3.7 5.4-5.5 7-6.9 18.5-5.8 23.9 2.5 1.3 1.9 1.9 4.3 2.9 6.5 4.1-1.4 8.4-1.3 12.5.9 4.1 2.1 6.7 5.6 7.9 10.3zm90.2-22.9c.2-.2.2-.4.3-.5 10.2-12.5 14-26.6 10.8-42.4-4.3-21.3-21.9-37.2-43.4-39.5-12.6-1.4-24.2 1.5-34.5 9-3.5 2.6-6.7 5.7-9.8 8.8-10.9 10.6-21.6 21.4-32.4 32.2-1.2 1.2-2.4 2.2-3.7 3.5 3.1 2.5 6.1 4.3 9.6 5.2 4.8 1.2 9 .2 12.5-3.4 9.7-9.8 19.5-19.5 29.2-29.2.8-.8 1.5-1.7 2.3-2.6 19.9 19.7 39.4 39.2 59.1 58.9zM74 163.8c3.4.1 5.4-.9 7.1-2.6 6.9-6.9 13.9-13.8 20.8-20.8 3.4-3.4 3.4-8.6.1-11.8-3.4-3.4-8.5-3.3-12 .2-2.9 3-5.9 5.9-8.8 8.8l-12 12c-2.5 2.5-3.2 6-1.8 9.1 1.4 3.3 4 5 6.6 5.1zm9.5 8.5c.1.6.1 1.3.2 1.9.8 3.2 2.7 5.3 5.8 6.2 3.1.9 5.8.2 8.1-2 3.2-3.1 6.4-6.3 9.5-9.5 2.7-2.7 5.4-5.3 8-8 3.2-3.3 3-8.3-.2-11.6-3.1-3.2-8.3-3.4-11.5-.2-6 5.9-11.9 11.8-17.7 17.8-1.4 1.4-2.2 3.2-2.2 5.4zm-33.8-33.4c.2 3.3 1.8 6 5.1 7.4 3.2 1.4 6.3.8 8.9-1.5.6-.5 1.1-1.1 1.7-1.7 3.8-3.8 7.7-7.6 11.4-11.4 3.2-3.3 3-8.3-.2-11.6-3.1-3.1-8.3-3.3-11.5-.2-4.4 4.3-8.8 8.7-13.1 13.1-1.5 1.5-2.2 3.5-2.3 5.9zm8.6-25.4c-.2-6.3-6.8-10.4-12.3-7.5-.5.3-.9.8-1.3 1.2-.6.5-1.4.9-2 1.5-2.3 2.2-4.5 4.5-6.7 6.7-.8.8-1.6 1.7-2.1 2.7-2.3 4.2-.3 9.6 4.2 11.4 2.4 1 4.8.9 7.1-.3.5-.3 1-.8 1.4-1.3 3.1-3 6.2-6.1 9.2-9.1.4-.4 1-.8 1.2-1.3.5-1.3.9-2.7 1.3-4z"/></svg>