<svg xmlns="http://www.w3.org/2000/svg" width="100" height="100" viewBox="0 0 493.7 349.8"><path fill="none" stroke="#594302" stroke-width="7" stroke-linecap="round" stroke-linejoin="round" stroke-miterlimit="10" d="M3.5 3.5v194.4l56.7 31.7 76.6-123.9zm486.7 0v196.7l-55 29.4-77.8-123.3z"/><path fill="none" stroke="#594302" stroke-width="7" stroke-linecap="round" stroke-linejoin="round" stroke-miterlimit="10" d="M361 112l-33.1 12.6-62.2-17.8-17.3 9.8-54.9 30.8 28.3 12.8 51.1-8.4 110 91.8 38.4-36"/><path fill="none" stroke="#594302" stroke-width="7" stroke-linecap="round" stroke-linejoin="round" stroke-miterlimit="10" d="M248.4 116.6H130.1l-63.7 103 22.1 18.3-11.1 15 121.7 89.5 32.7-17.8 38.9 21.7 115.6-92.2-3.4-10.5m-107.7-35.1l88.5 63.6m-106.3-28.5l73.5 54.6m-94.1-19.7l60.2 46.8"/><path fill="none" stroke="#594302" stroke-width="7" stroke-linecap="round" stroke-linejoin="round" stroke-miterlimit="10" d="M88.5 237.9l28.9-21.1 119.4 85.1-5 22.7m-125.3-50.3l39.6-37.1m33.1 23.6L139 298.2m73.3-13.7l-39 38.9"/></svg>