<svg viewBox="0 0 56 60" xmlns="http://www.w3.org/2000/svg"><g id="Page-1" fill="none" fill-rule="evenodd"><g id="019---Oil-Can" fill="#2dcf7a" fill-rule="nonzero"><path id="Shape" d="M21 1H5a5.006 5.006 0 00-5 5v48a6.006 6.006 0 006 6h33a6.006 6.006 0 006-6V23.485a6.951 6.951 0 00-2.051-4.949l-.293-.294.931-.925a4.008 4.008 0 00.6-4.853l2.107-2.1A7.981 7.981 0 0152 8a4 4 0 100-8 16.006 16.006 0 00-11.368 4.7l-2.1 2.1a4.01 4.01 0 00-4.855.608L32.7 8.4A6.946 6.946 0 0028.515 7H26V6a5.006 5.006 0 00-5-5zm21.046 5.119A14.014 14.014 0 0152 2a2 2 0 110 4 9.962 9.962 0 00-7.116 2.952l-2 1.995-2.832-2.828zm-4.113 2.708l4.235 4.234a2.016 2.016 0 010 2.837l-.933.927-7.07-7.071.925-.93a2.015 2.015 0 012.843.003zm-5.882 1.637l9.479 9.48A4.967 4.967 0 0143 23.485V54a4 4 0 01-4 4H6a4 4 0 01-4-4V6a3 3 0 013-3h16a3 3 0 013 3v2a1 1 0 001 1h3.515a4.973 4.973 0 013.536 1.464z"/><path id="Shape" d="M20 14a2 2 0 002-2V7a2 2 0 00-2-2H6a2 2 0 00-2 2v5a2 2 0 002 2zM6 7h14v5H6zm1 19v23a4 4 0 004 4h23a4 4 0 004-4V26a4 4 0 00-4-4H11a4 4 0 00-4 4zm29 0v23a2 2 0 01-2 2H11a2 2 0 01-2-2V26a2 2 0 012-2h23a2 2 0 012 2z"/><path id="Shape" d="M22.5 49a8.271 8.271 0 008.5-8c0-3.328-4.532-11.2-6.421-13.929a2.552 2.552 0 00-4.157 0C18.532 29.8 14 37.672 14 41a8.271 8.271 0 008.5 8zm-.435-20.789a.555.555 0 01.871 0C25.377 31.731 29 38.652 29 41a6.272 6.272 0 01-6.5 6 6.272 6.272 0 01-6.5-6c0-2.348 3.623-9.269 6.065-12.789z"/><path id="Shape" d="M22.5 45a1 1 0 000-2 2.3 2.3 0 01-2.5-2 1 1 0 00-2 0 4.277 4.277 0 004.5 4zM9 18a1 1 0 00-1-1H6a1 1 0 000 2h2a1 1 0 001-1zm2 0a1 1 0 001 1h17a1 1 0 000-2H12a1 1 0 00-1 1z"/></g></g></svg>