<svg xmlns="http://www.w3.org/2000/svg" width="208.1" height="208.2"><path fill="none" stroke="#000" stroke-width="3" stroke-miterlimit="10" d="M139.3 18c.1 3.3-.2 6.6.6 9.7 1.5 6.2 8.2 8.2 14 4.7 4.1-2.4 8.2-4.9 12.4-7.2 1.9-1 3.8-1.2 5.5.7 3.8 4.1 7.7 8.1 11.6 12 1.8 1.9 1 3.9-.1 5.5-2.5 4.3-5.3 8.6-8.1 12.8-2.2 3.5-.2 10.8 3.4 12.6.3.1.7.1 1 .2 5.7.3 11.6.8 17.3 1 4.1.1 4.5.7 5.5 4.6 1.2 5.1 2.6 10 4.1 15 .4 1.8-.4 2.8-2 3.5-5.6 2.8-11.1 5.7-16.8 8.5-2 1-2.6 2.5-3 4.5-1.2 6.2 1.5 9.9 6.8 12.8 4 2.1 7.4 5.2 10.8 8.1.7.6 1 2.3.8 3.2-1.7 5.1-3.6 10.2-5.5 15.2-.7 1.9-1.7 3.2-4 2.8-3.4-.6-7-.8-10.5-1.2-2.5-.2-5.1-.3-7.6-.7-2.2-.2-3.6.9-4.7 2.6-.6.8-.9 1.9-1.5 2.4-3.5 2.9-3.1 6.1-1.4 9.8 2.1 4.5 3.8 9.2 5.5 13.9.8 2 .6 3.8-1.7 5.2-4.3 2.9-8.3 6.3-12.6 9.2-1 .7-3.2.6-4.1-.1-3.9-2.9-7.4-6.1-11-9-1.4-1.2-3.1-2.3-4.7-3.3-.6-.3-1.4-.3-2-.1-2.4.9-4.7 2.1-7.2 2.9-2.6.9-3.8 2.4-4.3 5.3-1.1 6-2.6 11.8-4.3 17.5-.3 1.1-2 2.2-3.2 2.4-4.6.7-9.4.9-14.1 1.4-2.5.3-3.6-1.2-4.3-3.1-2-5.8-3.8-11.7-5.8-17.4-.3-1-1.3-2.1-2.2-2.4-3-1-6.1-1.7-9.2-2.2-4.6-.9-6.8 2.9-9.5 5.5-3.2 3.1-6.1 6.4-9.3 9.4-.7.6-2.5.6-3.4 0-4.1-2.1-7.9-4.3-11.9-6.6-3.6-2.1-4-3.2-2.6-7.4 1.1-3.9 2-7.7 3-11.6.3-1.4 1-2.8 1.3-4.2.1-.7.2-1.7-.2-2.2-2.1-2.8-4.4-5.4-6.7-7.9-2.1-2.3-4.7-1.9-7.4-1.3-4.1.9-8.2 2.1-12.2 2.9-5.6 1.2-6.7.4-9.2-4.9-1.3-3-3-5.8-4.6-8.7-1.5-2.9-1.4-3.9 1-6.2 3.4-3.2 7-6.5 10.4-9.8 1.3-1.3 3.4-2.9 3.4-4.3 0-4.1-.9-8.2-1.4-12.2-.1-.4-.7-.9-1.1-1.1-4.2-1.5-8.5-3-12.7-4.5-2.4-.9-4.9-2-7.2-3.2-.4-.2-.7-1.2-.7-1.8-.3-6.2-.2-12.3 2.2-18.1.6-1.2 3.3-1.8 5.1-2.2 5.3-1.2 10.6-2 15.8-3.3 1.2-.3 2.4-1.9 3.2-3.1 1.1-1.9 2.1-3.9 2.6-6 .3-1.2.4-3.2-.2-4.1-3.4-4.6-7.1-9.2-10.6-13.7-1.5-2-2-4.4-.6-6.3 3.2-4 6.5-7.9 9.8-11.8 1.5-1.8 3.2-2 5.6-.9 5.4 2.5 11 4.5 16.6 6.7.1 0 .1.1.2.1 3.3 1 10.7-4.3 10.6-7.7-.2-5.7-.6-11.5-1.1-17.1-.2-2.8.2-4.5 3.2-5.4 5.1-1.4 10-3.3 15.1-4.7 1.7-.6 3.1-.2 4.4 1.7 3.1 4.9 6.4 9.6 9.9 14.1 1.1 1.4 3.3 2.3 5.2 2.6 5.6.9 8.6-2.3 10.7-7.1 1.7-3.9 3.9-7.6 5.8-11.3 1.3-2.3 5.4-2.9 8.2-1.7 2.3 1.1 4.9 1.8 7.4 2.4 1.9.6 4 .7 5.7 1.4 1.1.6 2.2 2 2.3 3.2.8 3.5.6 6.4.5 9.1.1 0 .1 0 0 0zM104 43.5c-33.5-.8-59.2 28-60.5 56.9-1.5 36.9 28.1 62.4 56.9 63.8 36.9 1.9 64-28.6 64-60.1 0-33.4-28.2-61.5-60.4-60.6z"/></svg>