<svg xmlns="http://www.w3.org/2000/svg" width="173.1" height="200.8" viewBox="0 0 173.1 200.8"><path fill="#F2E41D" d="M63.6 91.9c2.3 19 9 34.2 23.1 45.2 3.1 2.4 7.8 3.3 11.8 3.6 2.9.2 5.5-1.3 6.7-5.3.9-3 4.6-5.6 7.6-7.5 11.2-7.1 11.6-6.9 17.9 4.8 5.2 9.7 10.5 19.4 15.7 29.1 3.7 6.8 3 9.4-3.8 13.4-4.3 2.5-8 6.8-13.9 5.5-.8-.2-2 1.2-3.1 1.8-14 9-22.8 8.7-36.1-1.4-13.9-10.6-24.4-24.4-33.4-39.2-13-21.2-23.2-43.6-26.6-68.6-.7-4.9-.8-10-.4-14.9.7-9.1 6.3-15.2 13.7-19.9 3-2 5.2-4.7 7.6-7.4 3.9-4.6 10.1-7.5 15.6-10.4 1-.5 4.7 1.9 5.7 3.7 7 12.4 13.7 24.9 20.4 37.4 1.9 3.5 1.1 7-2.2 8.8-5.5 3-9.8 9.1-17.6 7.3-1.3-.3-4.1 1.8-4.9 3.5-1.9 3.7-2.9 7.8-3.8 10.5zM47.1 40.4C35.6 46.3 31 55.1 32.3 67c.4 3.7.7 7.4 1.4 11.1 5 25.3 15.9 48.1 30.3 69.4 8.7 12.9 18.5 24.9 31.7 33.5 9.2 6 17.9 5.4 26.7-1.7-6-11-11.9-22.1-18-33.1-.6-1-2.6-2-3.6-1.8-8.1 1.7-14.3-1.7-19.8-6.9-11-10.6-17.6-23.6-20-38.6-1.3-8.1-.8-16 5.6-22.6-6.5-12-13-23.8-19.5-35.9zm28.7 34.7c4-2.4 7.5-4.6 11-6.7 2.7-1.6 3.1-3.5 1.6-6.2C82 50.6 75.7 38.8 69.2 27.1c-.6-1.1-2.6-2.6-3-2.4-4.5 2.4-8.8 5.1-13 8-.5.4-.2 2.7.4 3.8C59.9 48.3 66.3 60 72.7 71.7c.6 1.3 1.9 2.3 3.1 3.4zm55.6 102.6c3.6-2.1 6.5-4.1 9.7-5.7 4-2 4.8-4.4 2.4-8.5-5-8.6-9.5-17.5-14.3-26.2-7.3-13-4.1-12.5-17.9-4.3-2.8 1.7-3.5 3.6-1.9 6.6 6.4 11.5 12.6 23.1 18.9 34.7.7 1.2 2 2.2 3.1 3.4z"/></svg>