<svg viewBox="0 0 512.033 512" xmlns="http://www.w3.org/2000/svg"><path fill="#2dcf7a" d="M184.375 291.434L41.637 434.188c-9.992 9.996-9.992 26.199 0 36.195 9.996 9.996 26.203 9.996 36.199 0l142.746-142.735c10-10 10-26.21.004-36.21-10-10.004-26.211-10.004-36.211-.004zm24.14 24.14L65.77 458.316a8.708 8.708 0 01-12.067 0 8.532 8.532 0 010-12.066l142.738-142.742a8.534 8.534 0 018.243-2.215 8.547 8.547 0 016.039 6.035 8.54 8.54 0 01-2.207 8.246zm0 0"/><path fill="#2dcf7a" d="M448.371 402.082l34.899 34.902a16.836 16.836 0 0018.007 3.782 16.22 16.22 0 0010.54-14.414 90.358 90.358 0 00-33.09-75.438 90.355 90.355 0 00-80.551-17.242 8.153 8.153 0 01-7.68-1.953l-87.023-86.973L498.352 49.902a17.26 17.26 0 003.18-4.418l8.695-17.398a17.062 17.062 0 00-3.2-19.715l-3.386-3.344A17.065 17.065 0 00483.93 1.82l-17.375 8.684a17.142 17.142 0 00-4.453 3.21L267.277 208.548 180.34 121.61a8.178 8.178 0 01-2.016-7.68c7.559-28.05 1.168-58.023-17.168-80.554S114.773-1.504 85.773.199a16.212 16.212 0 00-14.507 10.547 16.855 16.855 0 003.78 18.004l34.782 34.578-13.527 32.11-32.297 14.183-34.91-34.988a16.81 16.81 0 00-17.996-3.79A16.29 16.29 0 00.53 85.353a90.456 90.456 0 00113.64 92.656 8.143 8.143 0 017.68 1.953l69.915 69.914-12.563 2.516a17.07 17.07 0 00-8.695 4.668L17.496 410.055c-23.328 23.328-23.328 61.148 0 84.48 23.328 23.328 61.152 23.328 84.48 0L254.97 341.531c2.379-2.383 4-5.414 4.66-8.715l2.246-12.867 70.133 70.137a8.221 8.221 0 012.023 7.68 90.454 90.454 0 0015.625 78.511 90.465 90.465 0 0076.938 35.22 16.31 16.31 0 0014.582-10.571 16.82 16.82 0 00-3.762-17.965l-34.887-34.523 13.852-32.481zm25.797-376.32l17.398-8.676 3.372 3.414-8.696 17.355-217.387 217.38-12.066-12.067zM133.883 167.828a25.384 25.384 0 00-24.031-6.332 73.717 73.717 0 01-70.875-18.973A76.023 76.023 0 0117 86.656l34.91 34.989a16.694 16.694 0 0018.457 3.515l32.828-14.14a17.245 17.245 0 008.594-8.688l13.652-32.195a16.554 16.554 0 00-3.41-18.551L86.703 17.238a73.307 73.307 0 0161.215 26.926 73.317 73.317 0 0113.879 65.422 25.388 25.388 0 006.406 24.039l87.008 86.988-10.488 10.489-12.059-12.059a17.072 17.072 0 00-17.016-4.266 17.258 17.258 0 00-11.886 13.586l-1.059 8.293-68.726-68.761zm109.012 161.637L89.91 482.449a42.663 42.663 0 01-41.281 11.2 42.658 42.658 0 01-30.25-30.243 42.662 42.662 0 0111.183-41.285l152.985-152.996 22.058-4.402a16.682 16.682 0 008.918-4.977c0-.043.094-.05.13-.086.324-.39.609-.812.85-1.262a18.136 18.136 0 003.61-7.68l2.504-19.624 17.688 17.492c.164.187.222.426.402.598l24.121 24.148c.453.379.945.707 1.469.98l17.21 17.016-20.804 2.7a16.875 16.875 0 00-8.02 4.128c-.093.086-.222.121-.316.215v.05a16.972 16.972 0 00-5.027 8.985zm158.011 79.512l-14.035 32.582a16.55 16.55 0 003.48 18.558l35.32 34.34a73.388 73.388 0 01-75.093-92.355 25.392 25.392 0 00-6.41-24.032l-68.793-68.754 8.883-1.16a17.067 17.067 0 008.719-28.8L280.922 267.3l10.484-10.489 86.992 86.989.067.066a25.447 25.447 0 0024.031 6.332 74.05 74.05 0 0170.945 18.93 75.76 75.76 0 0121.895 55.789l-34.89-34.926a16.723 16.723 0 00-18.415-3.5L409.5 400.31a17.252 17.252 0 00-8.594 8.668zm0 0"/></svg>