<?xml version="1.0" encoding="iso-8859-1"?>
<!-- Generator: Adobe Illustrator 19.0.0, SVG Export Plug-In . SVG Version: 6.00 Build 0)  -->
<svg version="1.1" id="Capa_1" xmlns="http://www.w3.org/2000/svg" xmlns:xlink="http://www.w3.org/1999/xlink" x="0px" y="0px"
	 viewBox="0 0 511.986 511.986" style="enable-background:new 0 0 511.986 511.986;" xml:space="preserve">
<g>
	<g>
		<path d="M504.211,7.745l-6.042,6.025l5.975-6.088c-10.53-10.079-27.129-10.079-37.658,0l-168.26,168.774l-18.107-18.162
			c-9.006-9.067-22.333-12.323-34.505-8.429c-12.172,3.894-21.135,14.28-23.207,26.891c-9.301-3.289-19.661-1.061-26.788,5.759
			c-7.162,7.21-9.402,17.964-5.715,27.435c-8.001-1.997-16.214-3.023-24.46-3.056c-27.187-0.067-53.266,10.769-72.4,30.083
			L2.494,327.804c-3.325,3.328-3.325,8.722,0,12.05l168.983,169.5c1.601,1.606,3.774,2.508,6.042,2.508
			c2.267,0,4.441-0.903,6.042-2.508l90.525-90.8c25.316-25.481,35.502-62.325,26.871-97.192c9.364,3.69,20.022,1.536,27.219-5.501
			c7.196-7.037,9.589-17.644,6.11-27.089c6.921-1.179,13.302-4.484,18.258-9.456c13.3-13.383,13.3-34.993,0-48.375l-16.621-16.672
			L504.211,45.466C514.577,35.029,514.577,18.182,504.211,7.745z M262.002,406.504l-84.483,84.738l-24.114-24.188l-0.003-0.004
			c-1.225-1.246-29.792-30.737-6.05-54.554c2.158-2.157,3-5.303,2.207-8.25c-0.792-2.947-3.098-5.246-6.047-6.03
			c-2.949-0.784-6.092,0.066-8.244,2.23c-9.36,8.763-14.62,21.047-14.504,33.868L20.585,333.829l84.542-84.8
			c15.967-16.04,37.666-25.06,60.298-25.067c22.633-0.007,44.336,9.001,60.313,25.032l36.307,36.417
			C295.303,318.932,295.283,373.007,262.002,406.504z M316.319,303.591c-3.369,3.225-8.681,3.225-12.05,0l-30.14-30.231
			l-0.044-0.048l-36.225-36.333l-0.039-0.035l-30.12-30.211c-3.361-3.33-3.386-8.754-0.056-12.115s8.754-3.386,12.115-0.056
			l96.559,96.858C319.661,294.789,319.661,300.222,316.319,303.591z M340.461,242.991c6.666,6.72,6.666,17.559,0,24.279
			c-3.187,3.217-7.53,5.022-12.058,5.012h-0.008c-4.525,0.009-8.865-1.794-12.05-5.008v-0.004l-72.425-72.646
			c-6.675-6.717-6.675-17.562,0-24.279c3.193-3.209,7.532-5.013,12.058-5.013c4.526,0,8.866,1.804,12.058,5.013L340.461,242.991z
			 M492.127,33.416l-168.25,168.763l-13.6-13.637L478.569,19.733c3.779-3.744,9.877-3.716,13.621,0.062
			C495.934,23.574,495.906,29.672,492.127,33.416z"/>
	</g>
</g>
<g>
</g>
<g>
</g>
<g>
</g>
<g>
</g>
<g>
</g>
<g>
</g>
<g>
</g>
<g>
</g>
<g>
</g>
<g>
</g>
<g>
</g>
<g>
</g>
<g>
</g>
<g>
</g>
<g>
</g>
</svg>
