<svg height="512pt" viewBox="0 -17 512 512" width="512pt" xmlns="http://www.w3.org/2000/svg"><path d="m17.066406 408.027344v35.707031c.019532 18.84375 15.289063 34.113281 34.132813 34.132813h42.667969c18.84375-.019532 34.113281-15.289063 34.132812-34.132813v-34.132813h256v34.132813c.019531 18.84375 15.289062 34.113281 34.132812 34.132813h42.667969c18.84375-.019532 34.113281-15.289063 34.132813-34.132813v-35.707031c10.199218-3.59375 17.035156-13.214844 17.066406-24.027344v-187.734375c-.007812-8.636719-4.378906-16.683594-11.617188-21.394531l-32.992187-138.808594c-5.011719-21.160156-23.925781-36.09375-45.671875-36.0625h-331.4375c-21.753906-.03125-40.667969 14.914062-45.671875 36.082031l-32.992187 138.789063c-7.238282 4.710937-11.6093755 12.757812-11.617188 21.394531v187.734375c.03125 10.8125 6.867188 20.433594 17.066406 24.027344zm93.867188 35.707031c-.011719 9.421875-7.644532 17.054687-17.066406 17.066406h-42.667969c-9.421875-.011719-17.054688-7.644531-17.066407-17.066406v-34.132813h76.800782zm349.867187 17.066406h-42.667969c-9.421874-.011719-17.054687-7.644531-17.066406-17.066406v-34.132813h76.800782v34.132813c-.011719 9.421875-7.644532 17.054687-17.066407 17.066406zm34.132813-76.800781c-.003906 4.710938-3.824219 8.527344-8.535156 8.535156h-460.796876c-4.710937-.007812-8.53125-3.824218-8.535156-8.535156v-187.734375c.003906-4.710937 3.824219-8.527344 8.535156-8.53125h460.796876c4.710937.003906 8.53125 3.820313 8.535156 8.53125zm-420.90625-213.332031 26.324218-110.933594h311.296876l26.324218 110.933594zm-12.820313-130.613281c3.183594-13.480469 15.222657-23 29.074219-22.988282h331.4375c13.84375-.015625 25.882812 9.496094 29.074219 22.96875l31.050781 130.632813h-26.335938l-28.816406-121.4375c-.914062-3.847657-4.347656-6.5625-8.300781-6.5625h-324.78125c-3.949219 0-7.386719 2.714843-8.296875 6.5625l-28.820312 121.4375h-26.335938zm0 0"/><path d="m102.398438 221.867188c-28.277344 0-51.199219 22.921874-51.199219 51.199218s22.921875 51.199219 51.199219 51.199219c28.277343 0 51.203124-22.921875 51.203124-51.199219-.03125-28.265625-22.9375-51.167968-51.203124-51.199218zm0 85.332031c-18.851563 0-34.132813-15.28125-34.132813-34.132813 0-18.851562 15.28125-34.132812 34.132813-34.132812 18.851562 0 34.136718 15.28125 34.136718 34.132812-.023437 18.84375-15.292968 34.113282-34.136718 34.132813zm0 0"/><path d="m409.601562 221.867188c-28.277343 0-51.203124 22.921874-51.203124 51.199218s22.925781 51.199219 51.203124 51.199219c28.277344 0 51.199219-22.921875 51.199219-51.199219-.03125-28.265625-22.9375-51.167968-51.199219-51.199218zm0 85.332031c-18.851562 0-34.136718-15.28125-34.136718-34.132813 0-18.851562 15.285156-34.132812 34.136718-34.132812 18.851563 0 34.132813 15.28125 34.132813 34.132812-.019531 18.84375-15.292969 34.113282-34.132813 34.132813zm0 0"/><path d="m136.535156 76.800781h-17.070312c-4.710938 0-8.53125 3.820313-8.53125 8.53125 0 4.714844 3.820312 8.535157 8.53125 8.535157h17.070312c4.710938 0 8.53125-3.820313 8.53125-8.535157 0-4.710937-3.820312-8.53125-8.53125-8.53125zm0 0"/><path d="m315.734375 76.800781h-145.066406c-4.714844 0-8.535157 3.820313-8.535157 8.53125 0 4.714844 3.820313 8.535157 8.535157 8.535157h145.066406c4.710937 0 8.53125-3.820313 8.53125-8.535157 0-4.710937-3.820313-8.53125-8.53125-8.53125zm0 0"/></svg>