<svg height="512" viewBox="0 0 56 60" width="512" xmlns="http://www.w3.org/2000/svg"><g id="Page-1" fill="none" fill-rule="evenodd"><g id="019---Oil-Can" fill="rgb(0,0,0)" fill-rule="nonzero"><path id="Shape" d="m21 1h-16c-2.76005315.00330612-4.99669388 2.23994685-5 5v48c.00330738 3.3123376 2.68766243 5.9966926 6 6h33c3.3123376-.0033074 5.9966926-2.6876624 6-6v-30.515c.0050297-1.85744-.7335575-3.6396284-2.051-4.949l-.293-.294.931-.925c1.277954-1.2941509 1.5242871-3.2865753.6-4.853l2.107-2.1c1.5076556-1.52184893 3.5638154-2.37371745 5.706-2.364 2.209139 0 4-1.790861 4-4s-1.790861-4-4-4c-4.2641126-.01014086-8.3560045 1.68161601-11.368 4.7l-2.1 2.1c-1.5687967-.92254087-3.5621453-.6729104-4.855.608l-.977.992c-1.2057282-.90917968-2.6749047-1.40066045-4.185-1.4h-2.515v-1c-.0033061-2.76005315-2.2399468-4.99669388-5-5zm21.046 5.119c2.6366881-2.64437115 6.2197319-4.12704721 9.954-4.119 1.1045695 0 2 .8954305 2 2s-.8954305 2-2 2c-2.6718972-.0101113-5.2358612 1.05352302-7.116 2.952l-2 1.995-2.832-2.828zm-4.113 2.708 4.235 4.234c.7779732.7856625.7779732 2.0513375 0 2.837l-.933.927-7.07-7.071.925-.93c.7869663-.78166091 2.0576851-.78032002 2.843.003zm-5.882 1.637 9.479 9.48c.9441583.9360291 1.4736532 2.2114994 1.47 3.541v30.515c0 2.209139-1.790861 4-4 4h-33c-2.209139 0-4-1.790861-4-4v-48c0-1.65685425 1.34314575-3 3-3h16c1.6568542 0 3 1.34314575 3 3v2c0 .55228475.4477153 1 1 1h3.515c1.3267686-.00323275 2.5998196.5238449 3.536 1.464z"/><path id="Shape" d="m20 14c1.1045695 0 2-.8954305 2-2v-5c0-1.1045695-.8954305-2-2-2h-14c-1.1045695 0-2 .8954305-2 2v5c0 1.1045695.8954305 2 2 2zm-14-7h14v5h-14z"/><path id="Shape" d="m7 26v23c0 2.209139 1.790861 4 4 4h23c2.209139 0 4-1.790861 4-4v-23c0-2.209139-1.790861-4-4-4h-23c-2.209139 0-4 1.790861-4 4zm29 0v23c0 1.1045695-.8954305 2-2 2h-23c-1.1045695 0-2-.8954305-2-2v-23c0-1.1045695.8954305-2 2-2h23c1.1045695 0 2 .8954305 2 2z"/><path id="Shape" d="m22.5 49c4.55271.1284879 8.3525834-3.4478636 8.5-8 0-3.328-4.532-11.2-6.421-13.929-.4788543-.6721706-1.2532032-1.0712766-2.0785-1.0712766s-1.5996457.399106-2.0785 1.0712766c-1.89 2.729-6.422 10.601-6.422 13.929.1474166 4.5521364 3.94729 8.1284879 8.5 8zm-.435-20.789c.1052543-.1332345.2657063-.2109582.4355-.2109582s.3302457.0777237.4355.2109582c2.441 3.52 6.064 10.441 6.064 12.789-.1472501 3.4475327-3.0517206 6.1285823-6.5 6-3.4482794.1285823-6.3527499-2.5524673-6.5-6 0-2.348 3.623-9.269 6.065-12.789z"/><path id="Shape" d="m22.5 45c.5522847 0 1-.4477153 1-1s-.4477153-1-1-1c-1.2367154.1179166-2.3435665-.7675642-2.5-2 0-.5522847-.4477153-1-1-1s-1 .4477153-1 1c.1485494 2.342115 2.1566214 4.1270679 4.5 4z"/><path id="Shape" d="m9 18c0-.5522847-.44771525-1-1-1h-2c-.55228475 0-1 .4477153-1 1s.44771525 1 1 1h2c.55228475 0 1-.4477153 1-1z"/><path id="Shape" d="m11 18c0 .5522847.4477153 1 1 1h17c.5522847 0 1-.4477153 1-1s-.4477153-1-1-1h-17c-.5522847 0-1 .4477153-1 1z"/></g></g></svg>