<svg height="511pt" viewBox="0 0 511 511.17492" width="511pt" xmlns="http://www.w3.org/2000/svg"><path d="m437.632812 306.441406c-25.644531-25.601562-67.175781-25.601562-92.824218 0l-37.757813 37.757813c-5.207031 5.304687-13.488281 6.066406-19.574219 1.800781-23.480468-16.902344-45.617187-35.589844-66.21875-55.898438-20.351562-20.628906-39.074218-42.800781-56-66.316406l-.042968-.058594c-4.222656-6.085937-3.445313-14.328124 1.847656-19.511718l37.757812-37.765625c12.308594-12.308594 19.222657-29.003907 19.222657-46.410157 0-17.410156-6.914063-34.105468-19.222657-46.414062l-54.402343-54.398438c-12.308594-12.3125-29.003907-19.226562-46.410157-19.226562-17.410156 0-34.105468 6.914062-46.414062 19.226562-49.546875 49.539063-68.65625 127.382813-51.128906 208.222657 11.90625 54.652343 41.835937 104.667969 94.214844 157.449219 4.34375 4.355468 8.691406 8.535156 12.886718 12.558593 4.265625 4.425781 8.441406 8.777344 12.8125 13.152344 52.765625 52.355469 102.789063 82.28125 157.4375 94.191406 19.160156 4.195313 38.710938 6.332031 58.324219 6.375 58.835937 0 112.449219-20.066406 149.894531-57.507812 12.308594-12.308594 19.222656-29.003907 19.222656-46.414063 0-17.40625-6.914062-34.101562-19.222656-46.414062zm42.339844 135.160156c-45.429687 45.433594-117.421875 62.824219-192.527344 46.515626-51.328124-11.179688-98.6875-39.660157-149.019531-89.601563-4.265625-4.265625-8.371093-8.53125-12.792969-13.125-4.351562-4.191406-8.617187-8.289063-12.863281-12.53125-49.964843-50.347656-78.449219-97.707031-89.632812-149.035156-16.289063-75.132813 1.101562-147.109375 46.527343-192.53125 18.96875-18.96875 49.722657-18.96875 68.691407 0l54.402343 54.398437c18.9375 18.980469 18.9375 49.710938 0 68.695313l-37.761718 37.761719c-11.175782 11.140624-12.691406 28.714843-3.585938 41.601562 17.464844 24.261719 36.785156 47.136719 57.78125 68.414062 21.242188 20.953126 44.066406 40.226563 68.277344 57.660157 12.894531 9.128906 30.488281 7.625 41.644531-3.558594l37.757813-37.757813c18.984375-18.933593 49.710937-18.933593 68.695312 0l54.40625 54.398438c18.964844 18.96875 18.964844 49.722656 0 68.695312zm0 0"/><path d="m75.285156 62.234375c-2.402344 2.398437-58.238281 60.183594-15.8125 187.464844 1.488282 4.472656 6.324219 6.886719 10.792969 5.394531 4.472656-1.488281 6.886719-6.324219 5.398437-10.792969-38.824218-116.460937 9.539063-167.800781 11.710938-170.027343 3.242188-3.351563 3.1875-8.683594-.113281-11.972657-3.304688-3.292969-8.636719-3.320312-11.976563-.066406zm0 0"/><path d="m436.996094 423.882812c-2.128906 2.085938-53.46875 50.542969-170.027344 11.71875-2.917969-1.0625-6.179688-.457031-8.519531 1.582032-2.339844 2.039062-3.390625 5.183594-2.742188 8.21875.648438 3.035156 2.890625 5.476562 5.859375 6.382812 28.683594 10.058594 58.800782 15.414063 89.191406 15.863282 65.570313 0 96.53125-29.921876 98.269532-31.664063 3.246094-3.339844 3.214844-8.664063-.066406-11.964844-3.285157-3.300781-8.605469-3.363281-11.964844-.136719zm0 0"/></svg>