<svg height="512pt" viewBox="0 0 512.03321 512" width="512pt" xmlns="http://www.w3.org/2000/svg"><path d="m184.375 291.433594-142.738281 142.753906c-9.992188 9.996094-9.992188 26.199219 0 36.195312 9.996093 9.996094 26.203125 9.996094 36.199219 0l142.746093-142.734374c10-10 10-26.210938.003907-36.210938-10-10.003906-26.210938-10.003906-36.210938-.003906zm24.140625 24.140625-142.746094 142.742187c-3.371093 3.238282-8.695312 3.238282-12.066406 0-3.332031-3.332031-3.332031-8.730468 0-12.066406l142.738281-142.742188c2.15625-2.160156 5.296875-3 8.242188-2.214843 2.945312.789062 5.246094 3.089843 6.039062 6.035156.789063 2.945313-.050781 6.085937-2.207031 8.246094zm0 0"/><path d="m448.371094 402.082031 34.898437 34.902344c4.722657 4.71875 11.785157 6.203125 18.007813 3.78125 6.078125-2.265625 10.226562-7.933594 10.539062-14.414063 1.738282-29.003906-10.570312-57.074218-33.089844-75.4375-22.515624-18.363281-52.488281-24.78125-80.550781-17.242187-2.722656.722656-5.628906-.019531-7.679687-1.953125l-87.023438-86.972656 194.878906-194.84375c1.285157-1.292969 2.359376-2.785156 3.179688-4.417969l8.695312-17.398437c3.292969-6.574219 2.003907-14.519532-3.199218-19.714844l-3.386719-3.34375c-5.195313-5.203125-13.136719-6.496094-19.710937-3.207032l-17.375 8.683594c-1.648438.824219-3.152344 1.910156-4.453126 3.210938l-194.824218 194.832031-86.9375-86.9375c-1.953125-2.039063-2.714844-4.945313-2.015625-7.679687 7.558593-28.050782 1.167969-58.023438-17.167969-80.554688s-46.382812-34.878906-75.382812-33.175781c-6.519532.277343-12.234376 4.433593-14.507813 10.546875-2.414063 6.21875-.933594 13.277344 3.78125 18.003906l34.78125 34.578125-13.527344 32.109375-32.296875 14.183594-34.910156-34.988282c-4.714844-4.722656-11.777344-6.210937-17.996094-3.789062-6.109375 2.285156-10.265625 7.992188-10.566406 14.507812-1.6875 28.984376 10.636719 57.019532 33.140625 75.367188s52.445313 24.78125 80.5 17.289062c2.722656-.722656 5.628906.015626 7.679687 1.953126l69.914063 69.914062-12.5625 2.515625c-3.296875.667969-6.320313 2.289063-8.695313 4.667969l-153.011718 152.996094c-23.328125 23.328124-23.328125 61.148437 0 84.480468 23.328125 23.328125 61.152344 23.328125 84.480468 0l152.992188-153.003906c2.378906-2.382812 4-5.414062 4.660156-8.714844l2.246094-12.867187 70.132812 70.136719c1.949219 2.042968 2.710938 4.941406 2.023438 7.679687-7.285156 27.175781-1.511719 56.195313 15.625 78.511719s43.679688 35.386718 71.816406 35.367187c1.707032 0 3.414063-.054687 5.121094-.148437 6.542969-.277344 12.285156-4.441406 14.582031-10.570313 2.410157-6.207031.9375-13.25-3.761719-17.964843l-34.886718-34.523438 13.851562-32.480469zm25.796875-376.320312 17.398437-8.675781 3.371094 3.414062-8.695312 17.355469-217.386719 217.378906-12.066407-12.066406zm-340.285157 142.066406c-6.359374-6.15625-15.464843-8.554687-24.03125-6.332031-25.316406 6.714844-52.300781-.503906-70.875-18.972656-14.679687-14.816407-22.625-35.019532-21.976562-55.867188l34.910156 34.988281c4.847656 4.851563 12.167969 6.246094 18.457032 3.515625l32.828124-14.140625c3.828126-1.75 6.886719-4.839843 8.59375-8.6875l13.652344-32.195312c2.84375-6.289063 1.480469-13.683594-3.410156-18.550781l-35.328125-34.347657c23.546875-1.398437 46.332031 8.625 61.214844 26.925781 14.882812 18.304688 20.046875 42.652344 13.878906 65.421876-2.207031 8.582031.222656 17.691406 6.40625 24.039062l87.007813 86.988281-10.488282 10.488281-12.058594-12.058593c-4.449218-4.449219-10.992187-6.089844-17.015624-4.265625-6.203126 1.929687-10.796876 7.179687-11.886719 13.585937l-1.058594 8.292969-68.726563-68.761719zm109.011719 161.636719-152.984375 152.984375c-10.761718 10.859375-26.507812 15.132812-41.28125 11.199219-14.773437-3.933594-26.316406-15.46875-30.25-30.242188-3.9375-14.773438.328125-30.523438 11.183594-41.285156l152.984375-152.996094 22.058594-4.402344c3.421875-.6875 6.539062-2.425781 8.917969-4.976562 0-.042969.09375-.050782.128906-.085938.324218-.390625.609375-.8125.851562-1.261718 1.792969-2.238282 3.03125-4.871094 3.609375-7.679688l2.503907-19.625 17.6875 17.492188c.164062.1875.222656.425781.402343.597656l24.121094 24.148437c.453125.378907.945313.707031 1.46875.980469l17.210937 17.015625-20.804687 2.699219c-2.996094.621094-5.769531 2.050781-8.019531 4.128906-.09375.085938-.222656.121094-.316406.214844v.050781c-2.566407 2.402344-4.320313 5.539063-5.027344 8.984375zm158.011719 79.511718-14.035156 32.582032c-2.828125 6.308594-1.441406 13.707031 3.480468 18.558594l35.320313 34.339843c-23.539063 1.359375-46.300781-8.671875-61.175781-26.96875-14.875-18.292969-20.050782-42.621093-13.917969-65.386719 2.199219-8.582031-.226563-17.6875-6.410156-24.03125l-68.792969-68.753906 8.882812-1.160156c6.167969-1.234375 11.160157-5.765625 12.984376-11.789062 1.824218-6.023438.183593-12.558594-4.265626-17.011719l-12.054687-12.054688 10.484375-10.488281 86.992188 86.988281.066406.066407c6.367187 6.144531 15.464844 8.542968 24.03125 6.332031 25.332031-6.683594 52.308594.511719 70.945312 18.929687 14.65625 14.796875 22.574219 34.972656 21.894532 55.789063l-34.890626-34.925781c-4.847656-4.820313-12.140624-6.207032-18.414062-3.5l-32.53125 13.816406c-3.824219 1.746094-6.882812 4.828125-8.59375 8.667968zm0 0"/></svg>