<svg viewBox="0 0 511 511.175" xmlns="http://www.w3.org/2000/svg"><path fill="#2dcf7a" d="M437.633 306.441c-25.645-25.601-67.176-25.601-92.824 0L307.05 344.2a15.204 15.204 0 01-19.573 1.8 562.102 562.102 0 01-66.22-55.898 561.414 561.414 0 01-56-66.317l-.042-.058a15.188 15.188 0 011.847-19.512l37.758-37.766a65.637 65.637 0 000-92.824l-54.402-54.398A65.622 65.622 0 00104.008 0a65.624 65.624 0 00-46.414 19.227C8.047 68.766-11.063 146.609 6.464 227.449c11.907 54.653 41.837 104.668 94.216 157.45 4.343 4.355 8.691 8.535 12.886 12.558 4.266 4.426 8.442 8.777 12.813 13.152 52.766 52.356 102.789 82.282 157.437 94.192a275.49 275.49 0 0058.325 6.375c58.836 0 112.449-20.067 149.894-57.508a65.637 65.637 0 0019.223-46.414 65.65 65.65 0 00-19.223-46.414zm42.34 135.16c-45.43 45.434-117.422 62.825-192.528 46.516-51.328-11.18-98.687-39.66-149.02-89.601-4.265-4.266-8.37-8.532-12.792-13.125-4.352-4.192-8.617-8.29-12.863-12.532-49.965-50.347-78.45-97.707-89.633-149.035-16.29-75.133 1.101-147.11 46.527-192.531 18.969-18.969 49.723-18.969 68.691 0l54.403 54.398c18.937 18.98 18.937 49.711 0 68.696l-37.762 37.761c-11.176 11.141-12.691 28.715-3.586 41.602a579.019 579.019 0 0057.781 68.414 579.04 579.04 0 0068.278 57.66c12.894 9.13 30.488 7.625 41.644-3.558l37.758-37.758c18.984-18.934 49.711-18.934 68.695 0l54.407 54.398c18.965 18.969 18.965 49.723 0 68.696zm0 0"/><path fill="#2dcf7a" d="M75.285 62.234c-2.402 2.399-58.238 60.184-15.812 187.465 1.488 4.473 6.324 6.887 10.793 5.395 4.472-1.489 6.886-6.324 5.398-10.793C36.84 127.84 85.204 76.5 87.375 74.273c3.242-3.351 3.188-8.683-.113-11.972a8.53 8.53 0 00-11.977-.067zm361.711 361.649c-2.129 2.086-53.469 50.543-170.027 11.719a8.534 8.534 0 10-5.402 16.184 282.12 282.12 0 0089.19 15.862c65.571 0 96.532-29.921 98.27-31.664a8.535 8.535 0 00-12.03-12.101zm0 0"/></svg>