<svg id="Capa_1" height="512" viewBox="0 0 512 512" width="512" xmlns="http://www.w3.org/2000/svg"><path fill="rgba(136, 173, 241, 0.5)" d="M209.551 253.26a7.5 7.5 0 00-7.5 7.5v22.056a7.5 7.5 0 003.75 6.495l46.449 26.816a7.493 7.493 0 007.5 0l46.449-26.816a7.5 7.5 0 003.75-6.495v-53.631a7.5 7.5 0 00-3.75-6.495l-46.449-26.816a7.499 7.499 0 00-7.5 0l-46.449 26.816a7.5 7.5 0 007.5 12.99L256 211.029l38.949 22.486v44.971L256 300.971l-38.949-22.486V260.76a7.5 7.5 0 00-7.5-7.5z"/><path fill="rgba(136, 173, 241, 0.5)" d="M469.089 351.855l-20.225-11.677 10.828-2.901a23.378 23.378 0 0014.291-10.963 23.371 23.371 0 002.349-17.858 23.393 23.393 0 00-10.992-14.306c-5.446-3.137-11.782-3.963-17.827-2.332l-56.286 15.083-15.502-8.951v-83.902l15.502-8.951 56.271 15.079c1.993.539 4.051.812 6.117.812 10.625 0 19.967-7.175 22.717-17.444a23.375 23.375 0 00-2.349-17.858 23.374 23.374 0 00-14.289-10.962l-10.83-2.902 20.225-11.677c11.236-6.487 15.1-20.907 8.614-32.142a23.377 23.377 0 00-14.301-10.974c-6.072-1.625-12.413-.786-17.845 2.359l-20.221 11.674 2.9-10.826c1.628-6.072.793-12.414-2.35-17.858s-8.218-9.337-14.27-10.957c-6.063-1.642-12.404-.819-17.851 2.318a23.377 23.377 0 00-10.988 14.315l-7.487 27.94a7.5 7.5 0 0014.489 3.883l7.488-27.946a8.477 8.477 0 013.985-5.194 8.42 8.42 0 016.463-.832c2.201.589 4.04 2 5.179 3.974s1.442 4.272.851 6.474l-7.585 28.316a7.5 7.5 0 0010.994 8.436l35.908-20.731a8.454 8.454 0 016.461-.854 8.476 8.476 0 015.186 3.98c2.352 4.075.952 9.303-3.122 11.655l-35.904 20.73a7.5 7.5 0 001.809 13.739l28.32 7.59c2.201.589 4.041 2 5.18 3.973s1.441 4.271.851 6.475a8.537 8.537 0 01-8.228 6.327 8.475 8.475 0 01-2.219-.296l-59.287-15.887a7.501 7.501 0 00-5.691.75l-55.655 32.133a7.5 7.5 0 00-3.75 6.495v53.635a7.5 7.5 0 003.75 6.495l55.655 32.133a7.505 7.505 0 005.691.75l59.3-15.891a8.426 8.426 0 016.444.845 8.49 8.49 0 013.99 5.193c.59 2.201.288 4.499-.851 6.472s-2.979 3.384-5.182 3.974l-28.318 7.589a7.5 7.5 0 00-1.809 13.739l35.904 20.73c4.074 2.352 5.474 7.58 3.121 11.657a8.567 8.567 0 01-7.402 4.268 8.378 8.378 0 01-4.25-1.148l-35.9-20.727a7.5 7.5 0 00-10.994 8.436l7.586 28.318c.59 2.201.288 4.5-.852 6.473s-2.979 3.384-5.198 3.979a8.423 8.423 0 01-2.202.292c-3.847 0-7.23-2.602-8.228-6.329l-15.887-59.288a7.502 7.502 0 00-3.495-4.554l-55.656-32.133a7.499 7.499 0 00-7.5 0l-46.449 26.816a7.5 7.5 0 00-3.75 6.495v64.268c0 1.989.79 3.897 2.197 5.303l43.401 43.402a8.469 8.469 0 012.499 6.03c0 2.278-.888 4.42-2.503 6.035-1.609 1.61-3.75 2.497-6.029 2.497s-4.421-.887-6.032-2.5l-20.729-20.727a7.501 7.501 0 00-12.803 5.304v41.456c0 4.705-3.828 8.532-8.532 8.532s-8.532-3.828-8.532-8.532v-41.456a7.5 7.5 0 00-12.803-5.304l-20.732 20.73c-1.608 1.61-3.749 2.497-6.029 2.497s-4.421-.887-6.034-2.502a8.47 8.47 0 01-2.499-6.03c0-2.279.888-4.42 2.5-6.032l43.4-43.4a7.497 7.497 0 002.197-5.303V337.4a7.5 7.5 0 00-3.75-6.495l-46.449-26.816a7.499 7.499 0 00-7.5 0l-55.656 32.133a7.506 7.506 0 00-3.495 4.554l-15.887 59.289a8.537 8.537 0 01-8.228 6.327 8.466 8.466 0 01-2.221-.297c-2.201-.589-4.04-2-5.179-3.974s-1.442-4.272-.851-6.474l7.585-28.316a7.5 7.5 0 00-10.994-8.436l-35.905 20.729a8.378 8.378 0 01-4.246 1.146 8.567 8.567 0 01-7.404-4.27c-2.352-4.075-.952-9.303 3.122-11.655l35.904-20.73a7.5 7.5 0 00-1.809-13.739l-28.32-7.59c-2.201-.589-4.041-2-5.18-3.973s-1.441-4.271-.85-6.476a8.486 8.486 0 013.982-5.196 8.438 8.438 0 016.464-.833l59.287 15.887a7.497 7.497 0 005.691-.75l55.655-32.133a7.5 7.5 0 003.75-6.495v-53.635a7.5 7.5 0 00-3.75-6.495l-55.655-32.133a7.503 7.503 0 00-5.691-.75l-59.302 15.892a8.443 8.443 0 01-2.204.292c-3.847 0-7.23-2.602-8.229-6.33-.59-2.201-.288-4.499.851-6.472s2.979-3.384 5.182-3.974l28.318-7.589a7.5 7.5 0 001.809-13.739l-35.904-20.73c-4.074-2.352-5.474-7.58-3.121-11.657a8.475 8.475 0 015.187-3.979 8.449 8.449 0 016.466.859l35.9 20.727a7.5 7.5 0 0010.994-8.436l-7.586-28.318c-.59-2.201-.288-4.5.852-6.473s2.979-3.384 5.2-3.979a8.41 8.41 0 016.437.844 8.484 8.484 0 013.991 5.193l15.887 59.288a7.502 7.502 0 003.495 4.554l55.656 32.133a7.499 7.499 0 007.5 0l46.449-26.816a7.5 7.5 0 003.75-6.495v-64.268c0-1.989-.79-3.897-2.197-5.303L201.87 61.627a8.469 8.469 0 01-2.499-6.03c0-2.278.888-4.42 2.503-6.035 1.608-1.61 3.75-2.497 6.029-2.497s4.421.887 6.032 2.5l20.729 20.727a7.5 7.5 0 0012.803-5.304V23.532c0-4.705 3.828-8.532 8.532-8.532s8.532 3.828 8.532 8.532v41.456a7.5 7.5 0 0012.803 5.304l20.732-20.73c1.608-1.61 3.749-2.497 6.029-2.497s4.421.887 6.034 2.502a8.47 8.47 0 012.499 6.03c0 2.279-.888 4.42-2.5 6.032l-43.4 43.4a7.497 7.497 0 00-2.197 5.303V174.6a7.5 7.5 0 003.75 6.495l46.449 26.816a7.499 7.499 0 007.5 0l55.656-32.133a7.5 7.5 0 00-7.5-12.99l-18.196 10.505-72.659-41.947v-17.908l41.202-41.201c4.446-4.444 6.896-10.354 6.896-16.641s-2.449-12.197-6.891-16.636c-4.442-4.447-10.352-6.896-16.642-6.896s-12.2 2.449-16.639 6.893l-7.926 7.925v-23.35C279.532 10.557 268.976 0 256 0s-23.532 10.557-23.532 23.532v23.351l-7.922-7.922c-4.442-4.447-10.353-6.896-16.642-6.896s-12.2 2.449-16.637 6.892c-4.446 4.444-6.896 10.354-6.896 16.641s2.449 12.197 6.894 16.639l41.203 41.203v17.908l-72.659 41.947-15.505-8.952-15.082-56.285c-1.628-6.084-5.534-11.167-10.996-14.312-5.45-3.138-11.788-3.963-17.822-2.329-6.072 1.626-11.147 5.519-14.291 10.963s-3.978 11.786-2.35 17.856l2.901 10.828-20.212-11.669a23.346 23.346 0 00-17.851-2.364c-6.081 1.626-11.16 5.523-14.303 10.972-6.487 11.237-2.624 25.657 8.612 32.144l20.225 11.677-10.828 2.901a23.378 23.378 0 00-14.291 10.963c-3.143 5.444-3.978 11.787-2.35 17.855 2.75 10.272 12.092 17.447 22.717 17.447 2.066 0 4.125-.273 6.102-.807l56.286-15.083 15.502 8.951v83.902l-15.502 8.951-56.273-15.08c-6.069-1.639-12.408-.813-17.851 2.323-5.453 3.143-9.353 8.227-10.981 14.311a23.375 23.375 0 002.349 17.858 23.374 23.374 0 0014.289 10.962l10.83 2.902-20.225 11.677c-11.236 6.487-15.1 20.907-8.614 32.142 4.189 7.262 12.004 11.772 20.396 11.772 4.115 0 8.18-1.093 11.75-3.158l20.221-11.674-2.9 10.826c-1.628 6.072-.793 12.414 2.35 17.858s8.218 9.337 14.271 10.958a23.45 23.45 0 006.12.813c10.625 0 19.967-7.175 22.717-17.446l15.083-56.287 15.506-8.952 72.658 41.947v17.908l-41.202 41.201c-4.446 4.444-6.896 10.354-6.896 16.641s2.449 12.197 6.891 16.636c4.442 4.447 10.352 6.896 16.642 6.896s12.2-2.449 16.639-6.893l7.926-7.925v23.351C232.468 501.443 243.024 512 256 512s23.532-10.557 23.532-23.532v-23.351l7.923 7.922c4.442 4.447 10.353 6.896 16.642 6.896s12.199-2.449 16.637-6.892c4.446-4.444 6.896-10.354 6.896-16.641s-2.449-12.197-6.894-16.639l-41.203-41.203v-17.908l72.658-41.947 15.506 8.952 15.083 56.286c2.75 10.272 12.092 17.447 22.717 17.447 2.068 0 4.126-.273 6.1-.807 6.072-1.626 11.147-5.519 14.291-10.963s3.978-11.786 2.35-17.856l-2.901-10.828 20.216 11.671a23.51 23.51 0 0011.755 3.161c8.392 0 16.207-4.511 20.394-11.771 6.487-11.234 2.624-25.654-8.613-32.142zM342.014 233.513l18.712-10.804v66.582l-18.712-10.804zm-4.823-51.56l-18.71 10.802-38.949-22.486v-21.603zm-104.723-33.287v21.603l-38.949 22.486-18.71-10.802zm-81.194 74.043l18.712 10.804v44.975l-18.712 10.804zm23.535 107.337l18.71-10.802 38.949 22.486v21.603zm104.723 33.288V341.73l38.949-22.486 18.71 10.802z"/></svg>