<svg xmlns="http://www.w3.org/2000/svg" xmlns:xlink="http://www.w3.org/1999/xlink"><symbol id="freon" viewBox="0 0 200.1 199.9"><path fill="none" stroke="#f6ed65" stroke-width="3" stroke-miterlimit="10" d="M104.8 5.8v17.5l2.5.4c1 .2 2 .3 2.9.5 2.9.5 5.7.9 8.3 1.6 8.1 2.2 15.6 6.6 23.8 13.9 3.2 2.9 6.5 5.9 9.6 8.8 3.7 3.4 7.5 6.9 11.3 10.3 10.6 9.2 20.5 14.5 31.3 16.7 1.5.3 2.1.8 2.5 1.5v1.2c-.2.5-.5 1-.7 1.4-.6 1.1-1.4 1.6-2.5 1.6-.2 0-.4 0-.7-.1-7.5-1.3-14.6-4.4-21-9.2-6-4.5-11.6-9.5-15.9-13.3-1.8-1.6-3.7-3.3-5.4-5-5.6-5.2-11.4-10.6-18.2-14.9-7.9-5.1-15.5-7.8-23.1-8.4h-4.8V53l2.4.5c.6.1 1.2.2 1.9.3 10.7.8 18.8 9.1 19.2 19.8 0 .4 0 .8.1 1.2V157c0 5.4-1.3 9.7-4.2 13.6-3.7 4.9-8.6 7.6-15 8.1h0c-.7.1-1.5.1-2.4.1H24.9c-4 0-7.1-.7-10-2.1-6.2-3-9.9-7.9-11.5-14.9-.1-.4-.2-.7-.3-1 0-.1-.1-.2-.1-.2v-89s0 0 0 0c.1-.2.2-.6.3-.9v-.2c1.8-9.4 9.8-16.5 19-16.9h0c1.6-.1 4.3-.9 4.3-4.8v-43h27.8c0 .5 0 1 .1 1.5v.2c0 .4.1.7.1 1.1.1 1.5.3 3.2 1 4.9 1.6 3.8 5.7 6.4 10.1 6.4.6 0 1.2-.1 1.8-.2h0c5.3-1.1 8.9-5.3 9.1-10.4.1-1.2.1-2.3 0-3.4h28.2m-23.3 9.2c-2.1 5.1-5.7 8.4-10.9 9.8-1.7.5-3.4.7-5.1.7-7.1 0-13.1-4.2-15.7-11.1-1.2-3.1-3.8-3.1-4.7-3.1h-.2c-1.3 0-2.5.1-3.7.1-1.2 0-2.4 0-3.7-.1H37c-2.2 0-4.6 1.3-4.6 4.9.1 6.8 0 13.6 0 20.3v10.5l.1.3v3.4l2.3.6c.8.2 1.3.2 1.6.2h58.1c2.1 0 4.3-1.2 4.3-4.4V16c0-2.8-1.7-4.5-4.6-4.5H94c-1.2 0-2.4.1-3.6.1-1.2 0-2.4 0-3.6-.1h-.5c-2.2 0-3.9 1.2-4.8 3.6M24.6 172.9h82.1c.7 0 1.7 0 2.6-.1 6.8-.7 12.5-6.4 12.8-13 .2-3.7.2-7.4.2-10.9V75.1c0-9.2-6.3-15.7-15.2-15.7H23.9c-2.4 0-5.1.7-7.2 1.7-5.3 2.7-7.9 7.4-7.9 13.9.2 13.8.2 27.7.2 41.1v40.7c0 1.4 0 3 .4 4.7 1.6 6.9 7.6 11.4 15.2 11.4M107.8 2.8H73.9c0 2.2.1 4.2 0 6.3-.1 3.8-2.9 6.8-6.7 7.6-.4.1-.9.1-1.3.1-3 0-6.2-1.7-7.4-4.6-.7-1.5-.7-3.4-.9-5.1-.1-1.4 0-2.8 0-4.3H23.8v46c0 1.1-.1 1.7-1.5 1.8C11.9 51 2.6 58.9.5 69.9c-.1.4-.3.8-.4 1.2v89.8c.1.5.3 1 .4 1.5 1.7 7.7 5.9 13.5 13.1 17 3.6 1.8 7.4 2.4 11.3 2.4h81.9c.9 0 1.8 0 2.7-.1 7.1-.6 12.8-3.6 17.1-9.3 3.4-4.6 4.8-9.7 4.8-15.4V75.5c0-.7-.1-1.5-.1-2.2-.5-12.3-9.9-21.8-22.1-22.7-.4 0-.9-.1-1.4-.2V33.2h1.6c8 .6 15.1 3.7 21.7 7.9 8.6 5.5 15.6 12.8 23.2 19.6 5.2 4.7 10.5 9.3 16.1 13.5 6.6 5 14.1 8.4 22.3 9.8.4.1.8.1 1.2.1 2.2 0 4-1.2 5.1-3.2.3-.6.7-1.4 1-2.1 0-.8 0-1.7.1-2.4-.9-2.3-2.6-3.4-5-3.9-11.6-2.3-21.2-8.4-29.9-16-7.1-6.2-13.9-12.8-20.9-19-7.3-6.5-15.4-11.9-25-14.5-3.7-1-7.5-1.5-11.5-2.2v-18h0zM65.5 28.6c1.9 0 3.9-.3 5.9-.8 6.1-1.7 10.5-5.7 12.9-11.6.5-1.2 1-1.7 2.2-1.7h.3c1.3.1 2.5.1 3.8.1s2.5 0 3.8-.1c1.2 0 1.6.3 1.6 1.5v31.3c0 .9-.2 1.4-1.3 1.4H36.6c-.2 0-.5 0-.9-.1 0-.6 0-1.2-.1-1.7 0-10.2.1-20.3 0-30.5 0-1.3.3-1.9 1.6-1.9h.3c1.3.1 2.6.1 3.9.1 1.3 0 2.5 0 3.8-.1 1 0 1.5.2 1.9 1.2 3 8 10.2 12.9 18.4 12.9h0zM24.6 169.9c-6.3 0-11-3.5-12.3-9.1-.3-1.3-.3-2.7-.3-4v-40.7c0-13.6 0-27.3-.2-41.1 0-5 1.8-8.9 6.3-11.2 1.7-.9 3.9-1.4 5.8-1.4h83.2c7.4 0 12.2 5.1 12.2 12.7v71.1c0 4.5.1 8.9-.2 13.4-.3 5.3-4.9 9.7-10.2 10.2-.7.1-1.5.1-2.2.1H24.6h0zm83.7 18.4c.6 0 1.3 0 1.8.1h.2c1.6.2 2.7 1.2 2.7 2.6v0h0c.1 1.7-.9 2.8-2.6 3-.4.1-.8.1-1.2.1H22.4c-2.1 0-2.8-.5-3.3-1.1-.6-.8-.8-1.8-.5-2.9.2-.5.7-1.6 2-1.9.6-.1 1.4-.1 2.2-.1h85.5m0-2.8H22.9c-1 0-2 0-2.9.2-4.3.9-6 6.3-3.2 9.6 1.5 1.7 3.5 2.1 5.6 2.1h86.7c.5 0 1.1 0 1.7-.1 3.2-.5 5.2-2.9 5.1-6.1 0-3-2.3-5.3-5.4-5.6-.7-.1-1.5-.1-2.2-.1h0z"/></symbol><symbol id="handshake" viewBox="0 0 200.2 196.9"><path fill="none" stroke="#f6ed65" stroke-width="3" stroke-miterlimit="10" d="M42.6 137.3c-13.5.7-21.3-13.4-14.3-24.2C13.6 101.7 5.7 86.8 5.2 68.2c-.4-14.5 4.2-27.3 13.6-38.3 20.4-24 57.4-27 81.4-5.7.3-.2.6-.5.9-.7 12.1-10 26-14.5 41.6-13.4 26.2 1.9 47.8 21.7 51.9 47.6 2.9 18.6-2.2 34.9-14.9 48.9-.4.4-.8 1.1-.7 1.7.3 9.4-6.7 16.6-16 16.4h-.9c.2 4.7-1.1 9-4.5 12.4-3.4 3.4-7.5 4.7-12.4 4.5.2 5.6-1.6 10.3-6.1 13.7-4.4 3.4-9.4 4-14.7 2.3-.1.3-.2.5-.2.8-.7 3-2 5.7-4.2 7.9-5.8 5.7-11.5 11.5-17.3 17.2-4.5 4.5-11.3 5.7-17 3.3-6-2.6-9.5-8.1-9.4-14.7v-1c-4.8.3-9-1.1-12.4-4.5-3.4-3.4-4.7-7.5-4.5-12.4-4.8.3-9-1.1-12.4-4.5-3.2-3.4-4.6-7.6-4.4-12.4zm43.3-14.6c5.7-4.1 11.6-5.1 17.7-1.6 7.3 4.2 9.2 10.8 7.2 18.7l1.5.3c4.2.9 7.4 3.1 9.8 6.6.8 1.1 1.7 2.2 2.8 3 4.5 3.4 11.1 1.3 12.8-4.1 1.1-3.4.2-6.3-2.2-8.7l-36.8-36.8-.7-.7c1.7-1.8 3.2-3.4 4.8-5.1.2.2.5.4.7.6 8.5 8.4 16.9 16.9 25.3 25.3l11.9 11.9c3.7 3.7 9.4 3.3 12.6-.8 2.7-3.5 2.3-8-1.2-11.5-10.7-10.7-21.4-21.4-32.1-32-1.8-1.8-3.6-3.5-5.3-5.1 1.8-1.8 3.5-3.4 5.4-5.3.2.3.4.7.7 1L140.4 98l16.9 16.9c2.9 2.9 6.5 3.6 9.8 2.1 5.4-2.6 6.6-9.3 2.3-13.5l-45.2-45.2c-2.3-2.3-4.6-4.6-7.1-7.2-.5.6-.9 1.2-1.3 1.7L90.3 78.3c-3.9 3.9-8.6 5.7-14.1 5.6-9.8-.6-16.8-5.9-23.2-12.7 14-14 28-28 42-41.9-12.1-11-31.7-16-50.3-9-18 6.8-32.4 24.5-32.4 46.7 0 17.1 7.4 30.6 21 41 1.9-1.9 3.7-3.7 5.4-5.5 7-6.9 18.5-5.8 23.9 2.5 1.3 1.9 1.9 4.3 2.9 6.5 4.1-1.4 8.4-1.3 12.5.9 4.1 2.1 6.7 5.6 7.9 10.3zm90.2-22.9c.2-.2.2-.4.3-.5 10.2-12.5 14-26.6 10.8-42.4-4.3-21.3-21.9-37.2-43.4-39.5-12.6-1.4-24.2 1.5-34.5 9-3.5 2.6-6.7 5.7-9.8 8.8-10.9 10.6-21.6 21.4-32.4 32.2-1.2 1.2-2.4 2.2-3.7 3.5 3.1 2.5 6.1 4.3 9.6 5.2 4.8 1.2 9 .2 12.5-3.4 9.7-9.8 19.5-19.5 29.2-29.2.8-.8 1.5-1.7 2.3-2.6 19.9 19.7 39.4 39.2 59.1 58.9zM74 163.8c3.4.1 5.4-.9 7.1-2.6 6.9-6.9 13.9-13.8 20.8-20.8 3.4-3.4 3.4-8.6.1-11.8-3.4-3.4-8.5-3.3-12 .2-2.9 3-5.9 5.9-8.8 8.8l-12 12c-2.5 2.5-3.2 6-1.8 9.1 1.4 3.3 4 5 6.6 5.1zm9.5 8.5c.1.6.1 1.3.2 1.9.8 3.2 2.7 5.3 5.8 6.2 3.1.9 5.8.2 8.1-2 3.2-3.1 6.4-6.3 9.5-9.5 2.7-2.7 5.4-5.3 8-8 3.2-3.3 3-8.3-.2-11.6-3.1-3.2-8.3-3.4-11.5-.2-6 5.9-11.9 11.8-17.7 17.8-1.4 1.4-2.2 3.2-2.2 5.4zm-33.8-33.4c.2 3.3 1.8 6 5.1 7.4 3.2 1.4 6.3.8 8.9-1.5.6-.5 1.1-1.1 1.7-1.7 3.8-3.8 7.7-7.6 11.4-11.4 3.2-3.3 3-8.3-.2-11.6-3.1-3.1-8.3-3.3-11.5-.2-4.4 4.3-8.8 8.7-13.1 13.1-1.5 1.5-2.2 3.5-2.3 5.9zm8.6-25.4c-.2-6.3-6.8-10.4-12.3-7.5-.5.3-.9.8-1.3 1.2-.6.5-1.4.9-2 1.5-2.3 2.2-4.5 4.5-6.7 6.7-.8.8-1.6 1.7-2.1 2.7-2.3 4.2-.3 9.6 4.2 11.4 2.4 1 4.8.9 7.1-.3.5-.3 1-.8 1.4-1.3 3.1-3 6.2-6.1 9.2-9.1.4-.4 1-.8 1.2-1.3.5-1.3.9-2.7 1.3-4z"/></symbol><symbol id="service" viewBox="0 0 208.1 208.2"><path fill="none" stroke="#f6ed65" stroke-width="3" stroke-miterlimit="10" d="M139.3 18c.1 3.3-.2 6.6.6 9.7 1.5 6.2 8.2 8.2 14 4.7 4.1-2.4 8.2-4.9 12.4-7.2 1.9-1 3.8-1.2 5.5.7 3.8 4.1 7.7 8.1 11.6 12 1.8 1.9 1 3.9-.1 5.5-2.5 4.3-5.3 8.6-8.1 12.8-2.2 3.5-.2 10.8 3.4 12.6.3.1.7.1 1 .2 5.7.3 11.6.8 17.3 1 4.1.1 4.5.7 5.5 4.6 1.2 5.1 2.6 10 4.1 15 .4 1.8-.4 2.8-2 3.5-5.6 2.8-11.1 5.7-16.8 8.5-2 1-2.6 2.5-3 4.5-1.2 6.2 1.5 9.9 6.8 12.8 4 2.1 7.4 5.2 10.8 8.1.7.6 1 2.3.8 3.2-1.7 5.1-3.6 10.2-5.5 15.2-.7 1.9-1.7 3.2-4 2.8-3.4-.6-7-.8-10.5-1.2-2.5-.2-5.1-.3-7.6-.7-2.2-.2-3.6.9-4.7 2.6-.6.8-.9 1.9-1.5 2.4-3.5 2.9-3.1 6.1-1.4 9.8 2.1 4.5 3.8 9.2 5.5 13.9.8 2 .6 3.8-1.7 5.2-4.3 2.9-8.3 6.3-12.6 9.2-1 .7-3.2.6-4.1-.1-3.9-2.9-7.4-6.1-11-9-1.4-1.2-3.1-2.3-4.7-3.3-.6-.3-1.4-.3-2-.1-2.4.9-4.7 2.1-7.2 2.9-2.6.9-3.8 2.4-4.3 5.3-1.1 6-2.6 11.8-4.3 17.5-.3 1.1-2 2.2-3.2 2.4-4.6.7-9.4.9-14.1 1.4-2.5.3-3.6-1.2-4.3-3.1-2-5.8-3.8-11.7-5.8-17.4-.3-1-1.3-2.1-2.2-2.4-3-1-6.1-1.7-9.2-2.2-4.6-.9-6.8 2.9-9.5 5.5-3.2 3.1-6.1 6.4-9.3 9.4-.7.6-2.5.6-3.4 0-4.1-2.1-7.9-4.3-11.9-6.6-3.6-2.1-4-3.2-2.6-7.4 1.1-3.9 2-7.7 3-11.6.3-1.4 1-2.8 1.3-4.2.1-.7.2-1.7-.2-2.2-2.1-2.8-4.4-5.4-6.7-7.9-2.1-2.3-4.7-1.9-7.4-1.3-4.1.9-8.2 2.1-12.2 2.9-5.6 1.2-6.7.4-9.2-4.9-1.3-3-3-5.8-4.6-8.7-1.5-2.9-1.4-3.9 1-6.2 3.4-3.2 7-6.5 10.4-9.8 1.3-1.3 3.4-2.9 3.4-4.3 0-4.1-.9-8.2-1.4-12.2-.1-.4-.7-.9-1.1-1.1-4.2-1.5-8.5-3-12.7-4.5-2.4-.9-4.9-2-7.2-3.2-.4-.2-.7-1.2-.7-1.8-.3-6.2-.2-12.3 2.2-18.1.6-1.2 3.3-1.8 5.1-2.2 5.3-1.2 10.6-2 15.8-3.3 1.2-.3 2.4-1.9 3.2-3.1 1.1-1.9 2.1-3.9 2.6-6 .3-1.2.4-3.2-.2-4.1-3.4-4.6-7.1-9.2-10.6-13.7-1.5-2-2-4.4-.6-6.3 3.2-4 6.5-7.9 9.8-11.8 1.5-1.8 3.2-2 5.6-.9 5.4 2.5 11 4.5 16.6 6.7.1 0 .1.1.2.1 3.3 1 10.7-4.3 10.6-7.7-.2-5.7-.6-11.5-1.1-17.1-.2-2.8.2-4.5 3.2-5.4 5.1-1.4 10-3.3 15.1-4.7 1.7-.6 3.1-.2 4.4 1.7 3.1 4.9 6.4 9.6 9.9 14.1 1.1 1.4 3.3 2.3 5.2 2.6 5.6.9 8.6-2.3 10.7-7.1 1.7-3.9 3.9-7.6 5.8-11.3 1.3-2.3 5.4-2.9 8.2-1.7 2.3 1.1 4.9 1.8 7.4 2.4 1.9.6 4 .7 5.7 1.4 1.1.6 2.2 2 2.3 3.2.8 3.5.6 6.4.5 9.1.1 0 .1 0 0 0zM104 43.5c-33.5-.8-59.2 28-60.5 56.9-1.5 36.9 28.1 62.4 56.9 63.8 36.9 1.9 64-28.6 64-60.1 0-33.4-28.2-61.5-60.4-60.6z"/></symbol><symbol id="split" viewBox="0 0 200 120"><g fill="none" stroke="#f6ed65" stroke-width="3" stroke-linecap="round" stroke-linejoin="round" stroke-miterlimit="10"><path d="M1.6 2h196.9v64.6H1.6z"/><path d="M24.5 53.9h151v12.7h-151zM100 71.6V117m65.9-45.2l19.2 41.2m-151-40.7l-19.2 41.2"/></g></symbol><symbol id="tel" viewBox="0 0 173.1 200.8"><path fill="#f6ed65" d="M63.6 91.9c2.3 19 9 34.2 23.1 45.2 3.1 2.4 7.8 3.3 11.8 3.6 2.9.2 5.5-1.3 6.7-5.3.9-3 4.6-5.6 7.6-7.5 11.2-7.1 11.6-6.9 17.9 4.8 5.2 9.7 10.5 19.4 15.7 29.1 3.7 6.8 3 9.4-3.8 13.4-4.3 2.5-8 6.8-13.9 5.5-.8-.2-2 1.2-3.1 1.8-14 9-22.8 8.7-36.1-1.4-13.9-10.6-24.4-24.4-33.4-39.2-13-21.2-23.2-43.6-26.6-68.6-.7-4.9-.8-10-.4-14.9.7-9.1 6.3-15.2 13.7-19.9 3-2 5.2-4.7 7.6-7.4 3.9-4.6 10.1-7.5 15.6-10.4 1-.5 4.7 1.9 5.7 3.7 7 12.4 13.7 24.9 20.4 37.4 1.9 3.5 1.1 7-2.2 8.8-5.5 3-9.8 9.1-17.6 7.3-1.3-.3-4.1 1.8-4.9 3.5-1.9 3.7-2.9 7.8-3.8 10.5zM47.1 40.4C35.6 46.3 31 55.1 32.3 67c.4 3.7.7 7.4 1.4 11.1 5 25.3 15.9 48.1 30.3 69.4 8.7 12.9 18.5 24.9 31.7 33.5 9.2 6 17.9 5.4 26.7-1.7-6-11-11.9-22.1-18-33.1-.6-1-2.6-2-3.6-1.8-8.1 1.7-14.3-1.7-19.8-6.9-11-10.6-17.6-23.6-20-38.6-1.3-8.1-.8-16 5.6-22.6-6.5-12-13-23.8-19.5-35.9zm28.7 34.7c4-2.4 7.5-4.6 11-6.7 2.7-1.6 3.1-3.5 1.6-6.2C82 50.6 75.7 38.8 69.2 27.1c-.6-1.1-2.6-2.6-3-2.4-4.5 2.4-8.8 5.1-13 8-.5.4-.2 2.7.4 3.8C59.9 48.3 66.3 60 72.7 71.7c.6 1.3 1.9 2.3 3.1 3.4zm55.6 102.6c3.6-2.1 6.5-4.1 9.7-5.7 4-2 4.8-4.4 2.4-8.5-5-8.6-9.5-17.5-14.3-26.2-7.3-13-4.1-12.5-17.9-4.3-2.8 1.7-3.5 3.6-1.9 6.6 6.4 11.5 12.6 23.1 18.9 34.7.7 1.2 2 2.2 3.1 3.4z"/></symbol></svg>