<svg xmlns="http://www.w3.org/2000/svg" xmlns:xlink="http://www.w3.org/1999/xlink">
  
  <symbol id="chistka_icon" viewBox="0 0 499.8 485.7">
    <path fill="none" stroke="#594302" stroke-width="8" stroke-miterlimit="10"
      d="M272 184.7L462 5.4l32 28-180.6 192 17.3 24.7-28.3 81.4-52 149.9-68.4-7.3-64-33.4-53.3-51.3-41.3-64.7L4 264.1l4.7-71.4 95.3 16.7 70.7-8.7 68-30.6z" />
    <path fill="none" stroke="#594302" stroke-width="8" stroke-miterlimit="10"
      d="M173.4 200.4l130 129.2-130-129.2zm-62.3 57.2L4 264.1m102.6 45l-83.2 15.6m106.2 25.6l-64.9 39.1m116.7-19.5L118 440.7m110.6-57.6l-46.6 91" />
  </symbol>

  <symbol id="freon_icon" viewBox="0 0 50 50">
    <path fill="none" stroke="#594302" stroke-linecap="square" stroke-linejoin="round" stroke-miterlimit="10"
      d="M10.9 17.4l2.3-5.7 4.1-1.9H24V7.4h-1.3V6h4.4v1.4h-1.3v2.4h7l3.9 1.9 2.5 5.7z" />
    <path fill="none" stroke="#594302" stroke-linecap="square" stroke-linejoin="round" stroke-miterlimit="10"
      d="M18.9 8.1h-1.5V4.9h-1.1V.7h17.5v4.2h-1.2l-.1 3.2h-1.4V4.9H19zm-8 11h28.3v19H10.9zm0 20.7h28l-3.8 5.4-1.3 4H16.3L15 45.3z" />
  </symbol>
  <symbol id="handshake" viewBox="0 0 493.7 349.8">
    <path fill="none" stroke="#594302" stroke-width="7" stroke-linecap="round" stroke-linejoin="round"
      stroke-miterlimit="10" d="M3.5 3.5v194.4l56.7 31.7 76.6-123.9zm486.7 0v196.7l-55 29.4-77.8-123.3z" />
    <path fill="none" stroke="#594302" stroke-width="7" stroke-linecap="round" stroke-linejoin="round"
      stroke-miterlimit="10" d="M361 112l-33.1 12.6-62.2-17.8-17.3 9.8-54.9 30.8 28.3 12.8 51.1-8.4 110 91.8 38.4-36" />
    <path fill="none" stroke="#594302" stroke-width="7" stroke-linecap="round" stroke-linejoin="round"
      stroke-miterlimit="10"
      d="M248.4 116.6H130.1l-63.7 103 22.1 18.3-11.1 15 121.7 89.5 32.7-17.8 38.9 21.7 115.6-92.2-3.4-10.5m-107.7-35.1l88.5 63.6m-106.3-28.5l73.5 54.6m-94.1-19.7l60.2 46.8" />
    <path fill="none" stroke="#594302" stroke-width="7" stroke-linecap="round" stroke-linejoin="round"
      stroke-miterlimit="10"
      d="M88.5 237.9l28.9-21.1 119.4 85.1-5 22.7m-125.3-50.3l39.6-37.1m33.1 23.6L139 298.2m73.3-13.7l-39 38.9" />
  </symbol>
  <symbol id="montaj_icon" viewBox="0 0 465.3 426.8">
    <path fill="none" stroke="#594302" stroke-width="7" stroke-linecap="round" stroke-linejoin="round"
      stroke-miterlimit="10"
      d="M3.5 3.5h57.2v419.8H3.5zM63.9 119h36.9V88h72.8v8.5h14.9V75.2h273.3v108h-33.7v218.7h-53.5l.6-218.7H196l-.5-20.3-15-.6-.5 9.1-73.3.5h-5.3v-34.7H63.9" />
    <path fill="none" stroke="#594302" stroke-width="7" stroke-linecap="round" stroke-linejoin="round"
      stroke-miterlimit="10" d="M370.9 255.4h-10.7v-24.6h10.7" />
  </symbol>
  <symbol id="remont_icon" viewBox="0 0 389.5 387">
    <path fill="none" stroke="#594302" stroke-width="7" stroke-linecap="round" stroke-linejoin="round"
      stroke-miterlimit="10"
      d="M386 193.5c0 104.9-85.6 190-191.3 190-68.9 0-129.3-36.2-163-90.5-17.9-28.9-28.3-63-28.3-99.5C3.4 88.6 89 3.5 194.7 3.5S386 88.6 386 193.5z" />
    <path fill="none" stroke="#594302" stroke-width="7" stroke-linecap="round" stroke-linejoin="round"
      stroke-miterlimit="10"
      d="M33.3 290.7l67.7-69.4 4.7-60 46-51.3 87-4.3-75.4 73.6 47.7 48.4 73.7-82.4v81.4l-41 44.6-74 11-70.1 76.1" />
  </symbol>
  <symbol id="service" viewBox="0 0 503.5 500">
    <circle fill="none" stroke="#f6ed65" stroke-width="7" stroke-linecap="round" stroke-linejoin="round"
      stroke-miterlimit="10" cx="125.7" cy="367.3" r="38.5" />
    <circle fill="none" stroke="#f6ed65" stroke-width="7" stroke-linecap="round" stroke-linejoin="round"
      stroke-miterlimit="10" cx="374.3" cy="367.3" r="38.5" />
    <path fill="none" stroke="#f6ed65" stroke-width="7" stroke-linecap="round" stroke-linejoin="round"
      stroke-miterlimit="10"
      d="M188.7 367.3h121.9l25.2-49.5h77l22.4 49.5h60.5V305h-8.6v-83.4h-54.5L349.1 90H23.5l-20 21.9v227.3l22.6 23h36.4l24.7-43.8 77-2.2z" />
    <path fill="none" stroke="#f6ed65" stroke-width="7" stroke-linecap="round" stroke-linejoin="round"
      stroke-miterlimit="10" d="M280.1 128.5v79.2h98.4L340 128.5z" />
  </symbol>
  <symbol id="split" viewBox="0 0 200 120">
    <g fill="none" stroke="#f6ed65" stroke-width="3" stroke-linecap="round" stroke-linejoin="round"
      stroke-miterlimit="10">
      <path d="M1.6 2h196.9v64.6H1.6z" />
      <path d="M24.5 53.9h151v12.7h-151zM100 71.6V117m65.9-45.2l19.2 41.2m-151-40.7l-19.2 41.2" />
    </g>
  </symbol>
  <symbol id="split_icon">
    <path fill="none" stroke="#f6ed65" stroke-linecap="square" stroke-linejoin="round" stroke-miterlimit="10"
      d="M1.1 9.4h48V30h-48z" />
    <path fill="none" stroke="#f6ed65" stroke-linecap="square" stroke-linejoin="round" stroke-miterlimit="10"
      d="M5.1 29.6V24h39.7v5.6M9.1 27.1H41" />
    <path fill="none" stroke="#f6ed65" stroke-linecap="round" stroke-linejoin="round" stroke-miterlimit="10"
      d="M11.3 33.3l-4.2 8.2m17.8-8.2l.2 9.5m13.5-9.5l3.9 8.2" />
  </symbol>
  <symbol id="tel" viewBox="0 0 65 50">
    <path fill="none" stroke="#f6ed65" stroke-linecap="square" stroke-linejoin="round" stroke-miterlimit="10"
      d="M1.4 4.6l12.1 12-.6 3.2 17.8 17.6 3.1-.8 12 12H31.5L1.4 19.4zM2.9 3l12.2 11.8 2.4-2.7L5.9.5zm32.4 32.1l12 12 1.9-1.8-12.1-12.1z" />
  </symbol>
</svg>