<svg xmlns="http://www.w3.org/2000/svg" xmlns:xlink="http://www.w3.org/1999/xlink"><symbol id="broom" viewBox="0 0 511.986 511.986"><path fill="#2dcf7a" d="M504.211 7.745l-6.042 6.025 5.975-6.088c-10.53-10.079-27.129-10.079-37.658 0l-168.26 168.774-18.107-18.162a34.022 34.022 0 00-57.712 18.462 26.141 26.141 0 00-26.788 5.759 25.7 25.7 0 00-5.715 27.435 102.706 102.706 0 00-24.46-3.056 101.56 101.56 0 00-72.4 30.083l-90.55 90.827a8.525 8.525 0 000 12.05l168.983 169.5a8.53 8.53 0 0012.084 0l90.525-90.8a102.838 102.838 0 0026.871-97.192 25.54 25.54 0 0033.329-32.59 33.79 33.79 0 0018.258-9.456c13.3-13.383 13.3-34.993 0-48.375l-16.621-16.672L504.211 45.466c10.366-10.437 10.366-27.284 0-37.721zM262.002 406.504l-84.483 84.738-24.114-24.188-.003-.004c-1.225-1.246-29.792-30.737-6.05-54.554a8.53 8.53 0 00-3.84-14.28 8.534 8.534 0 00-8.244 2.23 45.826 45.826 0 00-14.504 33.868L20.585 333.829l84.542-84.8a85.119 85.119 0 01120.611-.035l36.307 36.417c33.258 33.521 33.238 87.596-.043 121.093zm54.317-102.913a8.713 8.713 0 01-12.05 0l-30.14-30.231-.044-.048-36.225-36.333-.039-.035-30.12-30.211a8.567 8.567 0 1112.059-12.171l96.559 96.858a8.64 8.64 0 010 12.171zm24.142-60.6c6.666 6.72 6.666 17.559 0 24.279a16.92 16.92 0 01-12.058 5.012h-.008a16.916 16.916 0 01-12.05-5.008v-.004l-72.425-72.646c-6.675-6.717-6.675-17.562 0-24.279a17.01 17.01 0 0124.116 0l72.425 72.646zM492.127 33.416l-168.25 168.763-13.6-13.637L478.569 19.733c3.779-3.744 9.877-3.716 13.621.062 3.744 3.779 3.716 9.877-.063 13.621z"/></symbol><symbol id="car" viewBox="0 -17 512 512"><path fill="#2dcf7a" d="M17.066 408.027v35.707c.02 18.844 15.29 34.114 34.133 34.133h42.668c18.844-.02 34.113-15.289 34.133-34.133v-34.132h256v34.132c.02 18.844 15.29 34.114 34.133 34.133H460.8c18.844-.02 34.113-15.289 34.133-34.133v-35.707A25.556 25.556 0 00512 384V196.266a25.555 25.555 0 00-11.617-21.395L467.39 36.062C462.379 14.902 443.465-.03 421.719 0H90.28C68.527-.031 49.613 14.914 44.61 36.082l-32.992 138.79A25.555 25.555 0 000 196.265V384a25.556 25.556 0 0017.066 24.027zm93.868 35.707c-.012 9.422-7.645 17.055-17.067 17.067H51.2c-9.422-.012-17.054-7.645-17.066-17.067v-34.132h76.8zM460.8 460.801h-42.668c-9.422-.012-17.055-7.645-17.067-17.067v-34.132h76.801v34.132c-.012 9.422-7.644 17.055-17.066 17.067zM494.934 384c-.004 4.71-3.825 8.527-8.536 8.535H25.602c-4.711-.008-8.532-3.824-8.536-8.535V196.266c.004-4.711 3.825-8.528 8.536-8.532h460.796c4.711.004 8.532 3.82 8.536 8.532zM74.027 170.668l26.325-110.934h311.296l26.325 110.934zM61.207 40.055c3.184-13.48 15.223-23 29.074-22.989H421.72c13.844-.015 25.883 9.496 29.074 22.97l31.05 130.632h-26.335L426.69 49.23a8.531 8.531 0 00-8.3-6.562H93.609a8.527 8.527 0 00-8.296 6.562l-28.82 121.438H30.155zm0 0"/><path fill="#2dcf7a" d="M102.398 221.867c-28.277 0-51.199 22.922-51.199 51.2s22.922 51.199 51.2 51.199c28.277 0 51.203-22.922 51.203-51.2-.032-28.265-22.938-51.168-51.204-51.199zm0 85.332c-18.851 0-34.132-15.281-34.132-34.133 0-18.851 15.28-34.132 34.132-34.132 18.852 0 34.137 15.28 34.137 34.132-.023 18.844-15.293 34.114-34.137 34.133zm307.204-85.332c-28.278 0-51.204 22.922-51.204 51.2s22.926 51.199 51.204 51.199c28.277 0 51.199-22.922 51.199-51.2-.031-28.265-22.938-51.168-51.2-51.199zm0 85.332c-18.852 0-34.137-15.281-34.137-34.133 0-18.851 15.285-34.132 34.137-34.132 18.851 0 34.132 15.28 34.132 34.132-.02 18.844-15.293 34.114-34.132 34.133zM136.535 76.8h-17.07a8.532 8.532 0 00-8.531 8.532 8.533 8.533 0 008.53 8.535h17.071a8.533 8.533 0 008.531-8.535c0-4.71-3.82-8.531-8.53-8.531zm179.199 0H170.668a8.533 8.533 0 100 17.067h145.066a8.533 8.533 0 000-17.066zm0 0"/></symbol><symbol id="driller" viewBox="0 -51 512 512"><path fill="#2dcf7a" d="M42.668 153.602h8.531v117.46L29.27 315a33.656 33.656 0 00-3.667 15.324v45.14c0 18.852 15.28 34.138 34.132 34.138h170.664c18.852 0 34.137-15.286 34.137-34.137v-51.2a8.4 8.4 0 00-.668-3.285 8.467 8.467 0 00-1.844-2.753l-46.191-46.192a25.398 25.398 0 00-18.105-7.5H179.2c-4.71 0-8.531-3.824-8.531-8.535v-51.2h8.531c14.14 0 25.602-11.46 25.602-25.6v-25.598h93.867a25.6 25.6 0 0024.027-17.067h44.239a59.459 59.459 0 0053.757-34.137h65.707c14.11-.07 25.532-11.488 25.602-25.597 0-14.14-11.46-25.602-25.602-25.602h-65.707c-9.8-20.824-30.742-34.117-53.757-34.133h-44.239A25.594 25.594 0 00298.668 0h-256C19.113.027.028 19.113 0 42.668v68.266c.027 23.55 19.113 42.636 42.668 42.668zm187.73 238.933H59.734c-9.425 0-17.066-7.644-17.066-17.07v-45.14a16.819 16.819 0 011.824-7.63l17.586-35.215 37.82 37.82a25.43 25.43 0 0018.11 7.5h129.457v42.665c0 9.426-7.64 17.07-17.067 17.07zM179.2 281.602h18.528a8.506 8.506 0 016.039 2.5l31.636 31.632H118.008a8.547 8.547 0 01-6.043-2.5l-43.7-43.699V153.602h42.669v68.265c.027 23.551 19.113 42.637 42.668 42.668h1.57a25.6 25.6 0 0024.027 17.067zm-25.597-128v93.863c-14.141 0-25.602-11.461-25.602-25.598v-68.265zm34.132 25.597a8.534 8.534 0 01-8.535 8.535h-8.531v-34.132h17.066zm307.2-102.398a8.331 8.331 0 01-2.614 6.082 8.22 8.22 0 01-5.922 2.449h-60.464a59.4 59.4 0 00.734-8.531 59.655 59.655 0 00-.734-8.535h60.464a8.534 8.534 0 018.536 8.535zm-87.809-14.14a40.974 40.974 0 012.477 14.14 41.414 41.414 0 01-2.512 14.265 42.337 42.337 0 01-31.625 27.438V35.098a42.374 42.374 0 0131.66 27.562zm-48.727 56.804h-34.132V34.133h34.132zM17.066 42.668c0-14.14 11.461-25.602 25.602-25.602h256c4.71 0 8.531 3.82 8.531 8.536v8.53h-17.066a8.533 8.533 0 00-8.531 8.536c0 4.71 3.82 8.531 8.53 8.531H307.2v17.067h-17.066a8.533 8.533 0 00-8.531 8.535c0 4.71 3.82 8.531 8.53 8.531H307.2v17.066h-17.066a8.533 8.533 0 00-8.531 8.536c0 4.71 3.82 8.53 8.53 8.53H307.2V128c0 4.71-3.82 8.535-8.531 8.535h-256c-14.14 0-25.602-11.465-25.602-25.601zm0 0"/><path fill="#2dcf7a" d="M51.2 51.2h34.132a8.533 8.533 0 100-17.067H51.199a8.533 8.533 0 00-8.531 8.535c0 4.71 3.82 8.531 8.531 8.531zm0 34.132h34.132a8.533 8.533 0 100-17.066H51.199a8.533 8.533 0 00-8.531 8.535c0 4.71 3.82 8.531 8.531 8.531zm0 0"/></symbol><symbol id="like" viewBox="0 0 58 58"><path fill="#2dcf7a" d="M9.5 43c-2.757 0-5 2.243-5 5s2.243 5 5 5 5-2.243 5-5-2.243-5-5-5zm0 8c-1.654 0-3-1.346-3-3s1.346-3 3-3 3 1.346 3 3-1.346 3-3 3z"/><path fill="#2dcf7a" d="M56.5 35c0-2.495-1.375-3.662-2.715-4.233A4.992 4.992 0 0055.5 27c0-2.757-2.243-5-5-5H36.134l.729-3.41c.973-4.549.334-9.716.116-11.191C36.461 3.906 33.372 0 30.013 0h-.239C28.178 0 25.5.909 25.5 7c0 8.023-2.002 11.694-3.681 13.36-1.647 1.634-3.231 1.616-3.319 1.64h-1v-2h-16v38h16v-2h28c2.757 0 5-2.243 5-5a4.98 4.98 0 00-1.069-3.087A5.008 5.008 0 0053.5 43a4.98 4.98 0 00-1.069-3.087A5.008 5.008 0 0056.5 35zm-53 21V22h12v34h-12zm48-18h-11a1 1 0 100 2h8c1.654 0 3 1.346 3 3s-1.346 3-3 3h-10a1 1 0 100 2h7c1.654 0 3 1.346 3 3s-1.346 3-3 3h-28V24l.969-.001c.097.019 2.42.05 4.682-2.144C26.037 19.059 27.5 14.061 27.5 7c0-1.867.295-5 2.274-5h.239C32.244 2 34.621 5.13 35 7.691c.207 1.392.81 6.26-.093 10.48L33.662 24H50.5c1.654 0 3 1.346 3 3s-1.346 3-3 3h-10a1 1 0 100 2h7c.883 0 2.825.04 3.854.193C53.965 32.58 54.5 33.595 54.5 35c0 1.654-1.346 3-3 3z"/></symbol><symbol id="oil" viewBox="0 0 56 60"><g id="Page-1" fill="none" fill-rule="evenodd"><g id="019---Oil-Can" fill="#2dcf7a" fill-rule="nonzero"><path  d="M21 1H5a5.006 5.006 0 00-5 5v48a6.006 6.006 0 006 6h33a6.006 6.006 0 006-6V23.485a6.951 6.951 0 00-2.051-4.949l-.293-.294.931-.925a4.008 4.008 0 00.6-4.853l2.107-2.1A7.981 7.981 0 0152 8a4 4 0 100-8 16.006 16.006 0 00-11.368 4.7l-2.1 2.1a4.01 4.01 0 00-4.855.608L32.7 8.4A6.946 6.946 0 0028.515 7H26V6a5.006 5.006 0 00-5-5zm21.046 5.119A14.014 14.014 0 0152 2a2 2 0 110 4 9.962 9.962 0 00-7.116 2.952l-2 1.995-2.832-2.828zm-4.113 2.708l4.235 4.234a2.016 2.016 0 010 2.837l-.933.927-7.07-7.071.925-.93a2.015 2.015 0 012.843.003zm-5.882 1.637l9.479 9.48A4.967 4.967 0 0143 23.485V54a4 4 0 01-4 4H6a4 4 0 01-4-4V6a3 3 0 013-3h16a3 3 0 013 3v2a1 1 0 001 1h3.515a4.973 4.973 0 013.536 1.464z"/><path  d="M20 14a2 2 0 002-2V7a2 2 0 00-2-2H6a2 2 0 00-2 2v5a2 2 0 002 2zM6 7h14v5H6zm1 19v23a4 4 0 004 4h23a4 4 0 004-4V26a4 4 0 00-4-4H11a4 4 0 00-4 4zm29 0v23a2 2 0 01-2 2H11a2 2 0 01-2-2V26a2 2 0 012-2h23a2 2 0 012 2z"/><path  d="M22.5 49a8.271 8.271 0 008.5-8c0-3.328-4.532-11.2-6.421-13.929a2.552 2.552 0 00-4.157 0C18.532 29.8 14 37.672 14 41a8.271 8.271 0 008.5 8zm-.435-20.789a.555.555 0 01.871 0C25.377 31.731 29 38.652 29 41a6.272 6.272 0 01-6.5 6 6.272 6.272 0 01-6.5-6c0-2.348 3.623-9.269 6.065-12.789z"/><path  d="M22.5 45a1 1 0 000-2 2.3 2.3 0 01-2.5-2 1 1 0 00-2 0 4.277 4.277 0 004.5 4zM9 18a1 1 0 00-1-1H6a1 1 0 000 2h2a1 1 0 001-1zm2 0a1 1 0 001 1h17a1 1 0 000-2H12a1 1 0 00-1 1z"/></g></g></symbol><symbol id="phone" viewBox="0 0 511 511.175"><path fill="#2dcf7a" d="M437.633 306.441c-25.645-25.601-67.176-25.601-92.824 0L307.05 344.2a15.204 15.204 0 01-19.573 1.8 562.102 562.102 0 01-66.22-55.898 561.414 561.414 0 01-56-66.317l-.042-.058a15.188 15.188 0 011.847-19.512l37.758-37.766a65.637 65.637 0 000-92.824l-54.402-54.398A65.622 65.622 0 00104.008 0a65.624 65.624 0 00-46.414 19.227C8.047 68.766-11.063 146.609 6.464 227.449c11.907 54.653 41.837 104.668 94.216 157.45 4.343 4.355 8.691 8.535 12.886 12.558 4.266 4.426 8.442 8.777 12.813 13.152 52.766 52.356 102.789 82.282 157.437 94.192a275.49 275.49 0 0058.325 6.375c58.836 0 112.449-20.067 149.894-57.508a65.637 65.637 0 0019.223-46.414 65.65 65.65 0 00-19.223-46.414zm42.34 135.16c-45.43 45.434-117.422 62.825-192.528 46.516-51.328-11.18-98.687-39.66-149.02-89.601-4.265-4.266-8.37-8.532-12.792-13.125-4.352-4.192-8.617-8.29-12.863-12.532-49.965-50.347-78.45-97.707-89.633-149.035-16.29-75.133 1.101-147.11 46.527-192.531 18.969-18.969 49.723-18.969 68.691 0l54.403 54.398c18.937 18.98 18.937 49.711 0 68.696l-37.762 37.761c-11.176 11.141-12.691 28.715-3.586 41.602a579.019 579.019 0 0057.781 68.414 579.04 579.04 0 0068.278 57.66c12.894 9.13 30.488 7.625 41.644-3.558l37.758-37.758c18.984-18.934 49.711-18.934 68.695 0l54.407 54.398c18.965 18.969 18.965 49.723 0 68.696zm0 0"/><path fill="#2dcf7a" d="M75.285 62.234c-2.402 2.399-58.238 60.184-15.812 187.465 1.488 4.473 6.324 6.887 10.793 5.395 4.472-1.489 6.886-6.324 5.398-10.793C36.84 127.84 85.204 76.5 87.375 74.273c3.242-3.351 3.188-8.683-.113-11.972a8.53 8.53 0 00-11.977-.067zm361.711 361.649c-2.129 2.086-53.469 50.543-170.027 11.719a8.534 8.534 0 10-5.402 16.184 282.12 282.12 0 0089.19 15.862c65.571 0 96.532-29.921 98.27-31.664a8.535 8.535 0 00-12.03-12.101zm0 0"/></symbol><symbol id="tools" viewBox="0 0 512.033 512"><path fill="#2dcf7a" d="M184.375 291.434L41.637 434.188c-9.992 9.996-9.992 26.199 0 36.195 9.996 9.996 26.203 9.996 36.199 0l142.746-142.735c10-10 10-26.21.004-36.21-10-10.004-26.211-10.004-36.211-.004zm24.14 24.14L65.77 458.316a8.708 8.708 0 01-12.067 0 8.532 8.532 0 010-12.066l142.738-142.742a8.534 8.534 0 018.243-2.215 8.547 8.547 0 016.039 6.035 8.54 8.54 0 01-2.207 8.246zm0 0"/><path fill="#2dcf7a" d="M448.371 402.082l34.899 34.902a16.836 16.836 0 0018.007 3.782 16.22 16.22 0 0010.54-14.414 90.358 90.358 0 00-33.09-75.438 90.355 90.355 0 00-80.551-17.242 8.153 8.153 0 01-7.68-1.953l-87.023-86.973L498.352 49.902a17.26 17.26 0 003.18-4.418l8.695-17.398a17.062 17.062 0 00-3.2-19.715l-3.386-3.344A17.065 17.065 0 00483.93 1.82l-17.375 8.684a17.142 17.142 0 00-4.453 3.21L267.277 208.548 180.34 121.61a8.178 8.178 0 01-2.016-7.68c7.559-28.05 1.168-58.023-17.168-80.554S114.773-1.504 85.773.199a16.212 16.212 0 00-14.507 10.547 16.855 16.855 0 003.78 18.004l34.782 34.578-13.527 32.11-32.297 14.183-34.91-34.988a16.81 16.81 0 00-17.996-3.79A16.29 16.29 0 00.53 85.353a90.456 90.456 0 00113.64 92.656 8.143 8.143 0 017.68 1.953l69.915 69.914-12.563 2.516a17.07 17.07 0 00-8.695 4.668L17.496 410.055c-23.328 23.328-23.328 61.148 0 84.48 23.328 23.328 61.152 23.328 84.48 0L254.97 341.531c2.379-2.383 4-5.414 4.66-8.715l2.246-12.867 70.133 70.137a8.221 8.221 0 012.023 7.68 90.454 90.454 0 0015.625 78.511 90.465 90.465 0 0076.938 35.22 16.31 16.31 0 0014.582-10.571 16.82 16.82 0 00-3.762-17.965l-34.887-34.523 13.852-32.481zm25.797-376.32l17.398-8.676 3.372 3.414-8.696 17.355-217.387 217.38-12.066-12.067zM133.883 167.828a25.384 25.384 0 00-24.031-6.332 73.717 73.717 0 01-70.875-18.973A76.023 76.023 0 0117 86.656l34.91 34.989a16.694 16.694 0 0018.457 3.515l32.828-14.14a17.245 17.245 0 008.594-8.688l13.652-32.195a16.554 16.554 0 00-3.41-18.551L86.703 17.238a73.307 73.307 0 0161.215 26.926 73.317 73.317 0 0113.879 65.422 25.388 25.388 0 006.406 24.039l87.008 86.988-10.488 10.489-12.059-12.059a17.072 17.072 0 00-17.016-4.266 17.258 17.258 0 00-11.886 13.586l-1.059 8.293-68.726-68.761zm109.012 161.637L89.91 482.449a42.663 42.663 0 01-41.281 11.2 42.658 42.658 0 01-30.25-30.243 42.662 42.662 0 0111.183-41.285l152.985-152.996 22.058-4.402a16.682 16.682 0 008.918-4.977c0-.043.094-.05.13-.086.324-.39.609-.812.85-1.262a18.136 18.136 0 003.61-7.68l2.504-19.624 17.688 17.492c.164.187.222.426.402.598l24.121 24.148c.453.379.945.707 1.469.98l17.21 17.016-20.804 2.7a16.875 16.875 0 00-8.02 4.128c-.093.086-.222.121-.316.215v.05a16.972 16.972 0 00-5.027 8.985zm158.011 79.512l-14.035 32.582a16.55 16.55 0 003.48 18.558l35.32 34.34a73.388 73.388 0 01-75.093-92.355 25.392 25.392 0 00-6.41-24.032l-68.793-68.754 8.883-1.16a17.067 17.067 0 008.719-28.8L280.922 267.3l10.484-10.489 86.992 86.989.067.066a25.447 25.447 0 0024.031 6.332 74.05 74.05 0 0170.945 18.93 75.76 75.76 0 0121.895 55.789l-34.89-34.926a16.723 16.723 0 00-18.415-3.5L409.5 400.31a17.252 17.252 0 00-8.594 8.668zm0 0"/></symbol></svg>