<!-- Generator: Adobe Illustrator 17.1.0, SVG Export Plug-In  -->
<svg version="1.1"
	 xmlns="http://www.w3.org/2000/svg" xmlns:xlink="http://www.w3.org/1999/xlink" xmlns:a="http://ns.adobe.com/AdobeSVGViewerExtensions/3.0/"
	 x="0px" y="0px" width="200.1px" height="199.9px" viewBox="0 0 200.1 199.9" enable-background="new 0 0 200.1 199.9"
	 xml:space="preserve">
<defs>
</defs>
<g>
	<g>
			<path d="M104.8,5.8v15v2.5l2.5,0.4c1,0.2,2,0.3,2.9,0.5c2.9,0.5,5.7,0.9,8.3,1.6c8.1,2.2,15.6,6.6,23.8,13.9
				c3.2,2.9,6.5,5.9,9.6,8.8c3.7,3.4,7.5,6.9,11.3,10.3c10.6,9.2,20.5,14.5,31.3,16.7c1.5,0.3,2.1,0.8,2.5,1.5c0,0.4,0,0.8,0,1.2
				c-0.2,0.5-0.5,1-0.7,1.4c-0.6,1.1-1.4,1.6-2.5,1.6c-0.2,0-0.4,0-0.7-0.1c-7.5-1.3-14.6-4.4-21-9.2c-6-4.5-11.6-9.5-15.9-13.3
				c-1.8-1.6-3.7-3.3-5.4-5c-5.6-5.2-11.4-10.6-18.2-14.9c-7.9-5.1-15.5-7.8-23.1-8.4l-0.1,0h-0.1h-1.6h-3v3v17.2v2.5l2.4,0.5
				c0.6,0.1,1.2,0.2,1.9,0.3c10.7,0.8,18.8,9.1,19.2,19.8c0,0.4,0,0.8,0.1,1.2c0,0.3,0,0.7,0,0.9V157c0,5.4-1.3,9.7-4.2,13.6
				c-3.7,4.9-8.6,7.6-15,8.1l0,0l0,0c-0.7,0.1-1.5,0.1-2.4,0.1H24.9c-4,0-7.1-0.7-10-2.1c-6.2-3-9.9-7.9-11.5-14.9
				c-0.1-0.4-0.2-0.7-0.3-1c0-0.1-0.1-0.2-0.1-0.2v-89c0,0,0,0,0,0c0.1-0.2,0.2-0.6,0.3-0.9l0-0.1l0-0.1c1.8-9.4,9.8-16.5,19-16.9
				l0,0l0,0c1.6-0.1,4.3-0.9,4.3-4.8v-43h27.8c0,0.5,0,1,0.1,1.5l0,0.1l0,0.1c0,0.4,0.1,0.7,0.1,1.1c0.1,1.5,0.3,3.2,1,4.9
				c1.6,3.8,5.7,6.4,10.1,6.4c0.6,0,1.2-0.1,1.8-0.2l0,0l0,0c5.3-1.1,8.9-5.3,9.1-10.4c0.1-1.2,0.1-2.3,0-3.4H104.8 M81.5,15.1
				c-2.1,5.1-5.7,8.4-10.9,9.8c-1.7,0.5-3.4,0.7-5.1,0.7c-7.1,0-13.1-4.2-15.7-11.1c-1.2-3.1-3.8-3.1-4.7-3.1H45l-0.1,0
				c-1.3,0-2.5,0.1-3.7,0.1c-1.2,0-2.4,0-3.7-0.1c-0.2,0-0.3,0-0.5,0c-2.2,0-4.6,1.3-4.6,4.9c0.1,6.8,0,13.6,0,20.3
				c0,3.4,0,6.8,0,10.2v0.3l0.1,0.3c0,0.2,0,0.7,0,1.1v2.3l2.3,0.6c0.8,0.2,1.3,0.2,1.6,0.2h58.1c2.1,0,4.3-1.2,4.3-4.4V16
				c0-2.8-1.7-4.5-4.6-4.5h-0.1l-0.1,0c-1.2,0-2.4,0.1-3.6,0.1c-1.2,0-2.4,0-3.6-0.1c-0.2,0-0.3,0-0.5,0
				C84.1,11.5,82.4,12.7,81.5,15.1 M24.6,172.9h82.1c0.7,0,1.7,0,2.6-0.1c6.8-0.7,12.5-6.4,12.8-13c0.2-3.7,0.2-7.4,0.2-10.9
				c0-0.9,0-1.8,0-2.7V75.1c0-9.2-6.3-15.7-15.2-15.7H23.9c-2.4,0-5.1,0.7-7.2,1.7c-5.3,2.7-7.9,7.4-7.9,13.9
				C9,88.8,9,102.7,9,116.1v40.7c0,1.4,0,3,0.4,4.7C11,168.4,17,172.9,24.6,172.9 M107.8,2.8c-11.4,0-22.5,0-33.9,0
				c0,2.2,0.1,4.2,0,6.3c-0.1,3.8-2.9,6.8-6.7,7.6c-0.4,0.1-0.9,0.1-1.3,0.1c-3,0-6.2-1.7-7.4-4.6c-0.7-1.5-0.7-3.4-0.9-5.1
				c-0.1-1.4,0-2.8,0-4.3c-11.3,0-22.4,0-33.8,0c0,0.7,0,1.4,0,2.1c0,14.6,0,29.3,0,43.9c0,1.1-0.1,1.7-1.5,1.8
				C11.9,51,2.6,58.9,0.5,69.9c-0.1,0.4-0.3,0.8-0.4,1.2c0,29.9,0,59.9,0,89.8c0.1,0.5,0.3,1,0.4,1.5c1.7,7.7,5.9,13.5,13.1,17
				c3.6,1.8,7.4,2.4,11.3,2.4c27.3,0,54.6,0,81.9,0c0.9,0,1.8,0,2.7-0.1c7.1-0.6,12.8-3.6,17.1-9.3c3.4-4.6,4.8-9.7,4.8-15.4
				c0-27.2,0-54.3,0-81.5c0-0.7-0.1-1.5-0.1-2.2c-0.5-12.3-9.9-21.8-22.1-22.7c-0.4,0-0.9-0.1-1.4-0.2c0-5.8,0-11.5,0-17.2
				c0.6,0,1.1,0,1.6,0c8,0.6,15.1,3.7,21.7,7.9c8.6,5.5,15.6,12.8,23.2,19.6c5.2,4.7,10.5,9.3,16.1,13.5c6.6,5,14.1,8.4,22.3,9.8
				c0.4,0.1,0.8,0.1,1.2,0.1c2.2,0,4-1.2,5.1-3.2c0.3-0.6,0.7-1.4,1-2.1c0-0.8,0-1.7,0.1-2.4c-0.9-2.3-2.6-3.4-5-3.9
				c-11.6-2.3-21.2-8.4-29.9-16c-7.1-6.2-13.9-12.8-20.9-19c-7.3-6.5-15.4-11.9-25-14.5c-3.7-1-7.5-1.5-11.5-2.2
				C107.8,15,107.8,8.9,107.8,2.8L107.8,2.8z M65.5,28.6c1.9,0,3.9-0.3,5.9-0.8c6.1-1.7,10.5-5.7,12.9-11.6c0.5-1.2,1-1.7,2.2-1.7
				c0.1,0,0.2,0,0.3,0c1.3,0.1,2.5,0.1,3.8,0.1s2.5,0,3.8-0.1c1.2,0,1.6,0.3,1.6,1.5c0,10.4,0,20.9,0,31.3c0,0.9-0.2,1.4-1.3,1.4
				c-19.4,0-38.7,0-58.1,0c-0.2,0-0.5,0-0.9-0.1c0-0.6,0-1.2-0.1-1.7c0-10.2,0.1-20.3,0-30.5c0-1.3,0.3-1.9,1.6-1.9
				c0.1,0,0.2,0,0.3,0c1.3,0.1,2.6,0.1,3.9,0.1c1.3,0,2.5,0,3.8-0.1c1,0,1.5,0.2,1.9,1.2C50.1,23.7,57.3,28.6,65.5,28.6L65.5,28.6z
				 M24.6,169.9c-6.3,0-11-3.5-12.3-9.1c-0.3-1.3-0.3-2.7-0.3-4c0-13.5,0-27.1,0-40.7s0-27.3-0.2-41.1c0-5,1.8-8.9,6.3-11.2
				c1.7-0.9,3.9-1.4,5.8-1.4c27.7,0,55.5,0,83.2,0c7.4,0,12.2,5.1,12.2,12.7c0,23.7,0,47.4,0,71.1c0,4.5,0.1,8.9-0.2,13.4
				c-0.3,5.3-4.9,9.7-10.2,10.2c-0.7,0.1-1.5,0.1-2.2,0.1C79.3,169.9,52,169.9,24.6,169.9L24.6,169.9z"/>
		</g>
			<path d="M108.3,188.3c0.6,0,1.3,0,1.8,0.1l0.1,0l0.1,0c1.6,0.2,2.7,1.2,2.7,2.6v0l0,0c0.1,1.7-0.9,2.8-2.6,3
				c-0.4,0.1-0.8,0.1-1.2,0.1H22.4c-2.1,0-2.8-0.5-3.3-1.1c-0.6-0.8-0.8-1.8-0.5-2.9c0.2-0.5,0.7-1.6,2-1.9c0.6-0.1,1.4-0.1,2.2-0.1
				l42.9,0H108.3 M108.3,185.3c-14.2,0-28.3,0-42.5,0c-14.3,0-28.6,0-42.9,0c-1,0-2,0-2.9,0.2c-4.3,0.9-6,6.3-3.2,9.6
				c1.5,1.7,3.5,2.1,5.6,2.1c28.9,0,57.8,0,86.7,0c0.5,0,1.1,0,1.7-0.1c3.2-0.5,5.2-2.9,5.1-6.1c0-3-2.3-5.3-5.4-5.6
				C109.8,185.3,109,185.3,108.3,185.3L108.3,185.3z"/>
</g>
</svg>
