<svg xmlns="http://www.w3.org/2000/svg" xmlns:xlink="http://www.w3.org/1999/xlink" xmlns:a="http://ns.adobe.com/AdobeSVGViewerExtensions/3.0/" width="200.2px" height="196.9px" viewBox="0 0 200.2 196.9">
<defs>
</defs>
		<path fill="none" stroke="#f6ed65" stroke-width="3" stroke-miterlimit="10" d="M42.6,137.3c-13.5,0.7-21.3-13.4-14.3-24.2C13.6,101.7,5.7,86.8,5.2,68.2C4.8,53.7,9.4,40.9,18.8,29.9
			c20.4-24,57.4-27,81.4-5.7c0.3-0.2,0.6-0.5,0.9-0.7c12.1-10,26-14.5,41.6-13.4c26.2,1.9,47.8,21.7,51.9,47.6
			c2.9,18.6-2.2,34.9-14.9,48.9c-0.4,0.4-0.8,1.1-0.7,1.7c0.3,9.4-6.7,16.6-16,16.4c-0.2,0-0.5,0-0.9,0c0.2,4.7-1.1,9-4.5,12.4
			c-3.4,3.4-7.5,4.7-12.4,4.5c0.2,5.6-1.6,10.3-6.1,13.7c-4.4,3.4-9.4,4-14.7,2.3c-0.1,0.3-0.2,0.5-0.2,0.8c-0.7,3-2,5.7-4.2,7.9
			c-5.8,5.7-11.5,11.5-17.3,17.2c-4.5,4.5-11.3,5.7-17,3.3c-6-2.6-9.5-8.1-9.4-14.7c0-0.3,0-0.5,0-1c-4.8,0.3-9-1.1-12.4-4.5
			c-3.4-3.4-4.7-7.5-4.5-12.4c-4.8,0.3-9-1.1-12.4-4.5C43.8,146.3,42.4,142.1,42.6,137.3z M85.9,122.7c5.7-4.1,11.6-5.1,17.7-1.6
			c7.3,4.2,9.2,10.8,7.2,18.7c0.5,0.1,1,0.2,1.5,0.3c4.2,0.9,7.4,3.1,9.8,6.6c0.8,1.1,1.7,2.2,2.8,3c4.5,3.4,11.1,1.3,12.8-4.1
			c1.1-3.4,0.2-6.3-2.2-8.7c-12.3-12.3-24.5-24.5-36.8-36.8c-0.3-0.3-0.6-0.6-0.7-0.7c1.7-1.8,3.2-3.4,4.8-5.1
			c0.2,0.2,0.5,0.4,0.7,0.6c8.5,8.4,16.9,16.9,25.3,25.3c4,4,7.9,7.9,11.9,11.9c3.7,3.7,9.4,3.3,12.6-0.8c2.7-3.5,2.3-8-1.2-11.5
			c-10.7-10.7-21.4-21.4-32.1-32c-1.8-1.8-3.6-3.5-5.3-5.1c1.8-1.8,3.5-3.4,5.4-5.3c0.2,0.3,0.4,0.7,0.7,1
			c6.5,6.5,13.1,13.1,19.6,19.6c5.6,5.6,11.3,11.3,16.9,16.9c2.9,2.9,6.5,3.6,9.8,2.1c5.4-2.6,6.6-9.3,2.3-13.5
			c-15.1-15.1-30.1-30.1-45.2-45.2c-2.3-2.3-4.6-4.6-7.1-7.2c-0.5,0.6-0.9,1.2-1.3,1.7c-8.5,8.5-17,17-25.5,25.5
			c-3.9,3.9-8.6,5.7-14.1,5.6C66.4,83.3,59.4,78,53,71.2c14-14,28-28,42-41.9c-12.1-11-31.7-16-50.3-9c-18,6.8-32.4,24.5-32.4,46.7
			c0,17.1,7.4,30.6,21,41c1.9-1.9,3.7-3.7,5.4-5.5c7-6.9,18.5-5.8,23.9,2.5c1.3,1.9,1.9,4.3,2.9,6.5c4.1-1.4,8.4-1.3,12.5,0.9
			C82.1,114.5,84.7,118,85.9,122.7z M176.1,99.8c0.2-0.2,0.2-0.4,0.3-0.5c10.2-12.5,14-26.6,10.8-42.4
			c-4.3-21.3-21.9-37.2-43.4-39.5c-12.6-1.4-24.2,1.5-34.5,9c-3.5,2.6-6.7,5.7-9.8,8.8C88.6,45.8,77.9,56.6,67.1,67.4
			c-1.2,1.2-2.4,2.2-3.7,3.5c3.1,2.5,6.1,4.3,9.6,5.2c4.8,1.2,9,0.2,12.5-3.4c9.7-9.8,19.5-19.5,29.2-29.2c0.8-0.8,1.5-1.7,2.3-2.6
			C136.9,60.6,156.4,80.1,176.1,99.8z M74,163.8c3.4,0.1,5.4-0.9,7.1-2.6c6.9-6.9,13.9-13.8,20.8-20.8c3.4-3.4,3.4-8.6,0.1-11.8
			c-3.4-3.4-8.5-3.3-12,0.2c-2.9,3-5.9,5.9-8.8,8.8c-4,4-8,8-12,12c-2.5,2.5-3.2,6-1.8,9.1C68.8,162,71.4,163.7,74,163.8z
			 M83.5,172.3c0.1,0.6,0.1,1.3,0.2,1.9c0.8,3.2,2.7,5.3,5.8,6.2c3.1,0.9,5.8,0.2,8.1-2c3.2-3.1,6.4-6.3,9.5-9.5
			c2.7-2.7,5.4-5.3,8-8c3.2-3.3,3-8.3-0.2-11.6c-3.1-3.2-8.3-3.4-11.5-0.2c-6,5.9-11.9,11.8-17.7,17.8
			C84.3,168.3,83.5,170.1,83.5,172.3z M49.7,138.9c0.2,3.3,1.8,6,5.1,7.4c3.2,1.4,6.3,0.8,8.9-1.5c0.6-0.5,1.1-1.1,1.7-1.7
			c3.8-3.8,7.7-7.6,11.4-11.4c3.2-3.3,3-8.3-0.2-11.6c-3.1-3.1-8.3-3.3-11.5-0.2c-4.4,4.3-8.8,8.7-13.1,13.1
			C50.5,134.5,49.8,136.5,49.7,138.9z M58.3,113.5c-0.2-6.3-6.8-10.4-12.3-7.5c-0.5,0.3-0.9,0.8-1.3,1.2c-0.6,0.5-1.4,0.9-2,1.5
			c-2.3,2.2-4.5,4.5-6.7,6.7c-0.8,0.8-1.6,1.7-2.1,2.7c-2.3,4.2-0.3,9.6,4.2,11.4c2.4,1,4.8,0.9,7.1-0.3c0.5-0.3,1-0.8,1.4-1.3
			c3.1-3,6.2-6.1,9.2-9.1c0.4-0.4,1-0.8,1.2-1.3C57.5,116.2,57.9,114.8,58.3,113.5z"/>
</svg>
