<svg xmlns="http://www.w3.org/2000/svg" xmlns:xlink="http://www.w3.org/1999/xlink" xmlns:a="http://ns.adobe.com/AdobeSVGViewerExtensions/3.0/" width="208.1px" height="208.2px" viewBox="0 0 208.1 208.2">
<defs>
</defs>
<g>
	<g>
		<path fill="none" stroke="#F2E41D" stroke-width="3" stroke-miterlimit="10" d="M139.3,18c0.1,3.3-0.2,6.6,0.6,9.7
			c1.5,6.2,8.2,8.2,14,4.7c4.1-2.4,8.2-4.9,12.4-7.2c1.9-1,3.8-1.2,5.5,0.7c3.8,4.1,7.7,8.1,11.6,12c1.8,1.9,1,3.9-0.1,5.5
			c-2.5,4.3-5.3,8.6-8.1,12.8c-2.2,3.5-0.2,10.8,3.4,12.6c0.3,0.1,0.7,0.1,1,0.2c5.7,0.3,11.6,0.8,17.3,1c4.1,0.1,4.5,0.7,5.5,4.6
			c1.2,5.1,2.6,10,4.1,15c0.4,1.8-0.4,2.8-2,3.5c-5.6,2.8-11.1,5.7-16.8,8.5c-2,1-2.6,2.5-3,4.5c-1.2,6.2,1.5,9.9,6.8,12.8
			c4,2.1,7.4,5.2,10.8,8.1c0.7,0.6,1,2.3,0.8,3.2c-1.7,5.1-3.6,10.2-5.5,15.2c-0.7,1.9-1.7,3.2-4,2.8c-3.4-0.6-7-0.8-10.5-1.2
			c-2.5-0.2-5.1-0.3-7.6-0.7c-2.2-0.2-3.6,0.9-4.7,2.6c-0.6,0.8-0.9,1.9-1.5,2.4c-3.5,2.9-3.1,6.1-1.4,9.8c2.1,4.5,3.8,9.2,5.5,13.9
			c0.8,2,0.6,3.8-1.7,5.2c-4.3,2.9-8.3,6.3-12.6,9.2c-1,0.7-3.2,0.6-4.1-0.1c-3.9-2.9-7.4-6.1-11-9c-1.4-1.2-3.1-2.3-4.7-3.3
			c-0.6-0.3-1.4-0.3-2-0.1c-2.4,0.9-4.7,2.1-7.2,2.9c-2.6,0.9-3.8,2.4-4.3,5.3c-1.1,6-2.6,11.8-4.3,17.5c-0.3,1.1-2,2.2-3.2,2.4
			c-4.6,0.7-9.4,0.9-14.1,1.4c-2.5,0.3-3.6-1.2-4.3-3.1c-2-5.8-3.8-11.7-5.8-17.4c-0.3-1-1.3-2.1-2.2-2.4c-3-1-6.1-1.7-9.2-2.2
			c-4.6-0.9-6.8,2.9-9.5,5.5c-3.2,3.1-6.1,6.4-9.3,9.4c-0.7,0.6-2.5,0.6-3.4,0c-4.1-2.1-7.9-4.3-11.9-6.6c-3.6-2.1-4-3.2-2.6-7.4
			c1.1-3.9,2-7.7,3-11.6c0.3-1.4,1-2.8,1.3-4.2c0.1-0.7,0.2-1.7-0.2-2.2c-2.1-2.8-4.4-5.4-6.7-7.9c-2.1-2.3-4.7-1.9-7.4-1.3
			c-4.1,0.9-8.2,2.1-12.2,2.9c-5.6,1.2-6.7,0.4-9.2-4.9c-1.3-3-3-5.8-4.6-8.7c-1.5-2.9-1.4-3.9,1-6.2c3.4-3.2,7-6.5,10.4-9.8
			c1.3-1.3,3.4-2.9,3.4-4.3c0-4.1-0.9-8.2-1.4-12.2c-0.1-0.4-0.7-0.9-1.1-1.1c-4.2-1.5-8.5-3-12.7-4.5c-2.4-0.9-4.9-2-7.2-3.2
			c-0.4-0.2-0.7-1.2-0.7-1.8C1.4,95,1.5,88.9,3.9,83.1c0.6-1.2,3.3-1.8,5.1-2.2c5.3-1.2,10.6-2,15.8-3.3c1.2-0.3,2.4-1.9,3.2-3.1
			c1.1-1.9,2.1-3.9,2.6-6c0.3-1.2,0.4-3.2-0.2-4.1c-3.4-4.6-7.1-9.2-10.6-13.7c-1.5-2-2-4.4-0.6-6.3c3.2-4,6.5-7.9,9.8-11.8
			c1.5-1.8,3.2-2,5.6-0.9c5.4,2.5,11,4.5,16.6,6.7c0.1,0,0.1,0.1,0.2,0.1c3.3,1,10.7-4.3,10.6-7.7c-0.2-5.7-0.6-11.5-1.1-17.1
			c-0.2-2.8,0.2-4.5,3.2-5.4c5.1-1.4,10-3.3,15.1-4.7c1.7-0.6,3.1-0.2,4.4,1.7c3.1,4.9,6.4,9.6,9.9,14.1c1.1,1.4,3.3,2.3,5.2,2.6
			c5.6,0.9,8.6-2.3,10.7-7.1c1.7-3.9,3.9-7.6,5.8-11.3c1.3-2.3,5.4-2.9,8.2-1.7c2.3,1.1,4.9,1.8,7.4,2.4c1.9,0.6,4,0.7,5.7,1.4
			c1.1,0.6,2.2,2,2.3,3.2C139.6,12.4,139.4,15.3,139.3,18C139.4,18,139.4,18,139.3,18z M104,43.5c-33.5-0.8-59.2,28-60.5,56.9
			c-1.5,36.9,28.1,62.4,56.9,63.8c36.9,1.9,64-28.6,64-60.1C164.4,70.7,136.2,42.6,104,43.5z"/>
	</g>
</g>
</svg>
