<svg xmlns="http://www.w3.org/2000/svg" xmlns:xlink="http://www.w3.org/1999/xlink" xmlns:a="http://ns.adobe.com/AdobeSVGViewerExtensions/3.0/" width="173.1px" height="200.8px" viewBox="0 0 173.1 200.8">
<defs>
</defs>
<g>
	<g>
		<path fill="#F2E41D" d="M63.6,91.9c2.3,19,9,34.2,23.1,45.2c3.1,2.4,7.8,3.3,11.8,3.6c2.9,0.2,5.5-1.3,6.7-5.3c0.9-3,4.6-5.6,7.6-7.5
			c11.2-7.1,11.6-6.9,17.9,4.8c5.2,9.7,10.5,19.4,15.7,29.1c3.7,6.8,3,9.4-3.8,13.4c-4.3,2.5-8,6.8-13.9,5.5c-0.8-0.2-2,1.2-3.1,1.8
			c-14,9-22.8,8.7-36.1-1.4c-13.9-10.6-24.4-24.4-33.4-39.2c-13-21.2-23.2-43.6-26.6-68.6c-0.7-4.9-0.8-10-0.4-14.9
			c0.7-9.1,6.3-15.2,13.7-19.9c3-2,5.2-4.7,7.6-7.4c3.9-4.6,10.1-7.5,15.6-10.4c1-0.5,4.7,1.9,5.7,3.7c7,12.4,13.7,24.9,20.4,37.4
			c1.9,3.5,1.1,7-2.2,8.8c-5.5,3-9.8,9.1-17.6,7.3c-1.3-0.3-4.1,1.8-4.9,3.5C65.5,85.1,64.5,89.2,63.6,91.9z M47.1,40.4
			C35.6,46.3,31,55.1,32.3,67c0.4,3.7,0.7,7.4,1.4,11.1c5,25.3,15.9,48.1,30.3,69.4c8.7,12.9,18.5,24.9,31.7,33.5
			c9.2,6,17.9,5.4,26.7-1.7c-6-11-11.9-22.1-18-33.1c-0.6-1-2.6-2-3.6-1.8c-8.1,1.7-14.3-1.7-19.8-6.9C70,126.9,63.4,113.9,61,98.9
			c-1.3-8.1-0.8-16,5.6-22.6C60.1,64.3,53.6,52.5,47.1,40.4z M75.8,75.1c4-2.4,7.5-4.6,11-6.7c2.7-1.6,3.1-3.5,1.6-6.2
			C82,50.6,75.7,38.8,69.2,27.1c-0.6-1.1-2.6-2.6-3-2.4c-4.5,2.4-8.8,5.1-13,8c-0.5,0.4-0.2,2.7,0.4,3.8
			c6.3,11.8,12.7,23.5,19.1,35.2C73.3,73,74.6,74,75.8,75.1z M131.4,177.7c3.6-2.1,6.5-4.1,9.7-5.7c4-2,4.8-4.4,2.4-8.5
			c-5-8.6-9.5-17.5-14.3-26.2c-7.3-13-4.1-12.5-17.9-4.3c-2.8,1.7-3.5,3.6-1.9,6.6c6.4,11.5,12.6,23.1,18.9,34.7
			C129,175.5,130.3,176.5,131.4,177.7z"/>
	</g>
</g>
</svg>
