<!-- Generator: Adobe Illustrator 17.1.0, SVG Export Plug-In  -->
<svg version="1.1"
	 xmlns="http://www.w3.org/2000/svg" xmlns:xlink="http://www.w3.org/1999/xlink" xmlns:a="http://ns.adobe.com/AdobeSVGViewerExtensions/3.0/"
	 x="0px" y="0px" width="173.1px" height="200.8px" viewBox="0 0 173.1 200.8"
	 overflow="scroll" enable-background="new 0 0 173.1 200.8" xml:space="preserve">
<defs>
</defs>
<g>
	<g>
		<path fill="#FFFFFF" d="M1.1,1.1c57.3,0,114.6,0,171.9,0c0,66.5,0,133.1,0,199.7c-57.3,0-114.6,0-171.9,0
			C1.1,134.3,1.1,67.7,1.1,1.1z M63.6,91.9c1-2.8,2-6.8,3.8-10.5c0.8-1.6,3.5-3.8,4.9-3.5c7.8,1.8,12.1-4.3,17.6-7.3
			c3.3-1.8,4.1-5.3,2.2-8.8c-6.7-12.5-13.4-25.1-20.4-37.4c-1-1.8-4.7-4.3-5.7-3.7c-5.6,2.9-11.7,5.8-15.6,10.4
			c-2.4,2.8-4.6,5.5-7.6,7.4C35.3,43.3,29.7,49.3,29,58.4c-0.4,4.9-0.3,10,0.4,14.9c3.5,24.9,13.6,47.3,26.6,68.6
			c9.1,14.8,19.5,28.5,33.4,39.2c13.3,10.2,22.1,10.4,36.1,1.4c1-0.7,2.2-2,3.1-1.8c6,1.3,9.6-3,13.9-5.5c6.9-4,7.5-6.6,3.8-13.4
			c-5.2-9.7-10.5-19.4-15.7-29.1c-6.3-11.8-6.7-12-17.9-4.8c-3,1.9-6.7,4.5-7.6,7.5c-1.2,4.1-3.8,5.6-6.7,5.3
			c-4.1-0.3-8.8-1.2-11.8-3.6C72.5,126.1,65.9,111,63.6,91.9z"/>
		<path d="M63.6,91.9c2.3,19,9,34.2,23.1,45.2c3.1,2.4,7.8,3.3,11.8,3.6c2.9,0.2,5.5-1.3,6.7-5.3c0.9-3,4.6-5.6,7.6-7.5
			c11.2-7.1,11.6-6.9,17.9,4.8c5.2,9.7,10.5,19.4,15.7,29.1c3.7,6.8,3,9.4-3.8,13.4c-4.3,2.5-8,6.8-13.9,5.5c-0.8-0.2-2,1.2-3.1,1.8
			c-14,9-22.8,8.7-36.1-1.4c-13.9-10.6-24.4-24.4-33.4-39.2c-13-21.2-23.2-43.6-26.6-68.6c-0.7-4.9-0.8-10-0.4-14.9
			c0.7-9.1,6.3-15.2,13.7-19.9c3-2,5.2-4.7,7.6-7.4c3.9-4.6,10.1-7.5,15.6-10.4c1-0.5,4.7,1.9,5.7,3.7c7,12.4,13.7,24.9,20.4,37.4
			c1.9,3.5,1.1,7-2.2,8.8c-5.5,3-9.8,9.1-17.6,7.3c-1.3-0.3-4.1,1.8-4.9,3.5C65.5,85.1,64.5,89.2,63.6,91.9z M47.1,40.4
			C35.6,46.3,31,55.1,32.3,67c0.4,3.7,0.7,7.4,1.4,11.1c5,25.3,15.9,48.1,30.3,69.4c8.7,12.9,18.5,24.9,31.7,33.5
			c9.2,6,17.9,5.4,26.7-1.7c-6-11-11.9-22.1-18-33.1c-0.6-1-2.6-2-3.6-1.8c-8.1,1.7-14.3-1.7-19.8-6.9C70,126.9,63.4,113.9,61,98.9
			c-1.3-8.1-0.8-16,5.6-22.6C60.1,64.3,53.6,52.5,47.1,40.4z M75.8,75.1c4-2.4,7.5-4.6,11-6.7c2.7-1.6,3.1-3.5,1.6-6.2
			C82,50.6,75.7,38.8,69.2,27.1c-0.6-1.1-2.6-2.6-3-2.4c-4.5,2.4-8.8,5.1-13,8c-0.5,0.4-0.2,2.7,0.4,3.8
			c6.3,11.8,12.7,23.5,19.1,35.2C73.3,73,74.6,74,75.8,75.1z M131.4,177.7c3.6-2.1,6.5-4.1,9.7-5.7c4-2,4.8-4.4,2.4-8.5
			c-5-8.6-9.5-17.5-14.3-26.2c-7.3-13-4.1-12.5-17.9-4.3c-2.8,1.7-3.5,3.6-1.9,6.6c6.4,11.5,12.6,23.1,18.9,34.7
			C129,175.5,130.3,176.5,131.4,177.7z"/>
		<path fill="#FFFFFF" d="M47.1,40.4c6.6,12.1,13,23.9,19.5,35.9c-6.4,6.5-6.9,14.5-5.6,22.6c2.4,15,9,28.1,20,38.6
			c5.5,5.2,11.7,8.6,19.8,6.9c1.1-0.2,3.1,0.8,3.6,1.8c6.1,11,12.1,22.1,18,33.1c-8.8,7.1-17.5,7.7-26.7,1.7
			c-13.2-8.6-23-20.6-31.7-33.5c-14.4-21.2-25.3-44-30.3-69.4c-0.7-3.7-1.1-7.4-1.4-11.1C31,55.1,35.6,46.3,47.1,40.4z"/>
		<path fill="#FFFFFF" d="M75.8,75.1c-1.1-1.2-2.4-2.1-3.1-3.4c-6.4-11.7-12.8-23.4-19.1-35.2c-0.6-1.1-0.9-3.5-0.4-3.8
			c4.2-2.9,8.5-5.6,13-8c0.5-0.3,2.4,1.3,3,2.4C75.7,38.8,82,50.6,88.4,62.3c1.5,2.7,1.1,4.7-1.6,6.2C83.2,70.5,79.8,72.7,75.8,75.1
			z"/>
		<path fill="#FFFFFF" d="M131.4,177.7c-1.1-1.2-2.4-2.2-3.1-3.4c-6.4-11.5-12.6-23.1-18.9-34.7c-1.6-3-1-4.9,1.9-6.6
			c13.8-8.2,10.6-8.7,17.9,4.3c4.9,8.7,9.3,17.6,14.3,26.2c2.4,4.1,1.6,6.4-2.4,8.5C137.9,173.6,134.9,175.6,131.4,177.7z"/>
	</g>
</g>
</svg>
